<svg width="256" height="212" xmlns="http://www.w3.org/2000/svg" preserveAspectRatio="xMidYMid"><path d="M0 32.7h59.9v17.6H0V32.7zM0 0h59.9v17.6H0V0zm107.4 65.1H0v17.6h103.4c11.3 0 37.7.3 47.5 16.1V89C146 73.4 132 65.1 107.4 65.1zm.2 32.7H0v17.6h103.4c25.1 0 41 1 47.5 4.6v-7.8c-5-12.4-26.2-14.4-43.3-14.4zm-.2 83H0v-17.6h103.4c11.3 0 37.7-.2 47.5-16v9.7c-4.8 15.6-18.9 24-43.5 24zm.2-32.7H0v-17.6h103.4c25.1 0 41-1 47.5-4.5v7.8c-5 12.3-26.2 14.3-43.3 14.3zm69.4 63.1h79v-10.8h-76.7c-6.8 0-22.9-.2-28.7-9.5v6c2.8 9.3 11.3 14.3 26.4 14.3zm-.2-19.8h79v-10.8h-76.5c-15.3 0-24.9-.5-28.7-2.8v4.8c3 7.5 15.9 8.8 26.2 8.8z" fill="#010101"/></svg>