<svg width="256" height="256" xmlns="http://www.w3.org/2000/svg" preserveAspectRatio="xMidYMid"><path d="M0 223c0 18 15 33 33 33h190c18 0 33-15 33-33V33c0-18-15-33-33-33H33C15 0 0 15 0 33v190z" fill="#563D7C"/><path d="M106 113V77h32l9 1 7 2 6 6 2 9c0 6-2 11-6 14s-9 4-15 4h-35zM72 51v155h75c7 0 14-1 20-3 7-2 13-5 18-8a40 40 0 0017-34c0-10-2-18-7-25s-12-12-22-15c7-3 13-7 16-13 4-5 6-11 6-19 0-7-2-13-4-18s-6-9-10-12l-16-7-20-1H72zm34 128v-43h37c8 0 14 2 18 6 5 3 7 9 7 17l-2 10-6 6-8 3-9 1h-37z" fill="#FFF"/></svg>