<svg width="256" height="361" xmlns="http://www.w3.org/2000/svg" preserveAspectRatio="xMidYMid"><path d="M128 360L24 331 0 71h256l-24 260-104 29z" fill="#264DE4"/><path d="M212 315l20-223H128v246l84-23z" fill="#2965F1"/><path d="M54 189l3 32h71v-32H54zM48 124l3 32h77v-32H48zM128 272l-36-10-2-25H58l4 50 66 18v-33z" fill="#EBEBEB"/><path d="M60 0h39v16H77v16h22v17H60V0zM107 0h39v14h-23v3h23v32h-39V34h22v-2h-22V0zM153 0h39v14h-23v3h23v32h-39V34h23v-2h-23V0z"/><path d="M202 189l6-65h-80v32h45l-3 33h-42v32h39l-3 41-36 10v33l65-18 1-6 7-84 1-8z" fill="#FFF"/></svg>