<svg width="256" height="243" xmlns="http://www.w3.org/2000/svg" preserveAspectRatio="xMidYMid"><defs><linearGradient x1="-82.6%" y1="-92.8%" x2="103.8%" y2="106%" id="a"><stop stop-color="#F9A03C" offset="0%"/><stop stop-color="#F7974E" offset="100%"/></linearGradient><linearGradient x1="-258.9%" y1="-249%" x2="97.6%" y2="98.8%" id="b"><stop stop-color="#F9A03C" offset="0%"/><stop stop-color="#F7974E" offset="100%"/></linearGradient><linearGradient x1="-223.2%" y1="-262%" x2="94%" y2="101.7%" id="c"><stop stop-color="#F9A03C" offset="0%"/><stop stop-color="#F7974E" offset="100%"/></linearGradient><linearGradient x1="11.3%" y1="-1.8%" x2="82.5%" y2="92.1%" id="d"><stop stop-color="#F26D58" offset="0%"/><stop stop-color="#F9A03C" offset="100%"/></linearGradient><linearGradient x1="15.8%" y1="3.9%" x2="120.1%" y2="72.4%" id="e"><stop stop-color="#B84E51" offset="0%"/><stop stop-color="#F68E48" offset="100%"/></linearGradient><linearGradient x1="47%" y1="23.5%" x2="51.9%" y2="147.4%" id="f"><stop stop-color="#F9A03C" offset="0%"/><stop stop-color="#F7974E" offset="100%"/></linearGradient></defs><path d="M256 176v-4l-81-78h-2s82 87 83 82z" fill="url(#a)"/><path d="M83 149v2c-3 5 36 43 39 38v-1h1c2-4-38-41-40-39z" fill="url(#b)"/><path d="M138 202l-2 2 38 38h3s-35-38-39-40z" fill="url(#c)"/><path d="M256 172c-2 39-34 70-74 70h-5l-40-39c4-4 7-9 9-14h36a21 21 0 000-41h-21a142 142 0 000-54h13l82 81v-3zM21 0H0v53h21a68 68 0 0162 97l39 38c13-19 21-42 21-67C143 54 88 0 21 0z" fill="url(#d)"/><path d="M182 0H95c21 13 39 31 51 53h36a21 21 0 010 41h-8l82 81v-7c0-18-7-34-17-47A74 74 0 00182 0z" fill="url(#e)"/><path d="M177 242H96c16-10 30-23 41-39l40 39zm-55-54l-39-38a68 68 0 01-62 39H0v53h21c42 0 80-21 101-54z" fill="url(#f)"/></svg>