<svg width="256" height="206" xmlns="http://www.w3.org/2000/svg" preserveAspectRatio="xMidYMid"><path d="M170 57l23-22 1-10A100 100 0 0031 75l8-2 44-7 4-3c19-22 53-25 76-7l7 1z" fill="#EA4335"/><path d="M224 74c-5-19-15-36-30-49l-31 31c13 11 20 27 20 44v6c15 0 28 12 28 28 0 15-13 27-28 27h-56l-5 6v34l5 5h56a72 72 0 0041-132" fill="#4285F4"/><path d="M72 206h55v-45H72l-12-2-7 2-23 22-2 8c13 10 28 15 44 15" fill="#34A853"/><path d="M72 61a72 72 0 00-44 130l32-32a28 28 0 1137-37l32-32a72 72 0 00-57-29" fill="#FBBC05"/></svg>