<svg width="512" height="116" xmlns="http://www.w3.org/2000/svg"><g fill="none" fill-rule="evenodd"><path d="M490 9h21l-43 58c-1 2-3 3-3 5l-5 15h-19l3-16c0-5-3-11-4-16l-4-15h20l3 11 31-42" fill="#1A1918"/><path d="M449 20c4 2 7 16 7 16h-42l-12 51h-18l14-66c1-3 6-2 14-2h14c9 0 19-2 23 1M365 45s1-3-2-7c-2-3-4-4-9-4-16-1-16 11-16 11h27zm17-13c2 8-2 28-2 28h-35c-4 0-9-1-10 1-2 2 0 6 2 8s7 2 8 2c10 2 32 1 32 1l-4 16s-30 2-45-2l-8-4-1-2-2-4c-4-9 0-27 4-36l2-4 1-4 2-1 1-2 5-4c6-5 18-9 31-7 5 0 13 2 17 7l2 7zM299 18h18l-15 69h-20c-14 0-27 2-32-8s0-26 2-37l5-23 18-1-7 37c-1 5-2 9-1 12 2 3 4 3 11 4h9l12-53M217 52c2-7 5-14 4-20 0-6-5-12-9-13-10-3-19 2-23 6-5 5-7 11-9 20-1 6-2 13 0 18 5 9 18 7 32 7l5-18zm25-26c2 15-6 31-11 45h10l-5 17h-24c-20 0-38 1-47-8-4-4-6-11-7-16-1-8 0-16 2-23l7-18c8-14 22-25 46-23l15 5 2 1c5 4 10 12 12 20zM156 19l-3 16h-20l4-17 19 1M132 40h19l-11 51c-2 9-4 16-10 21l-2 1-9 3h-17l5-18c15 1 15-13 18-26l7-32" fill="#1A1918"/><g fill="#21609B"><path d="M89 75l-1 2c-7 13-19 21-36 21A51 51 0 016 71c-7-14-8-34 7-48l-2 3v1C0 61 33 90 65 87c8-1 18-5 24-12"/><path d="M69 62c8 0 17-4 22-9-5 11-17 18-34 16-14-2-28-17-29-31-1-10 2-17 8-24l-3 9c-2 22 18 38 36 39"/><path d="M90 34l-12 9a22 22 0 01-27-15c-1-6-1-14 4-19l-1 13 4 7c2 4 4 5 7 7l4 1c3 1 10 4 21-3"/></g></g></svg>