<svg width="256" height="256" xmlns="http://www.w3.org/2000/svg" preserveAspectRatio="xMidYMid"><defs><linearGradient x1="15.8%" y1="14.7%" x2="91%" y2="85.2%" id="a"><stop offset="0%"/><stop stop-color="#FFF" offset="100%"/></linearGradient><linearGradient x1="82.1%" y1="85.2%" x2="-3.1%" y2="14.8%" id="b"><stop offset="0%"/><stop stop-color="#FFF" offset="100%"/></linearGradient></defs><path d="M128 191c56 77 112-22 112-81C240 39 168 0 128 0 62 0 0 54 0 128c0 82 71 128 128 128-13-2-55-11-56-109 0-66 22-92 56-81 0 1 37 15 37 63 0 47-37 62-37 62z" fill="url(#a)"/><path d="M128 66c-38-13-84 18-84 80 0 101 75 110 84 110 66 0 128-54 128-128C256 46 185 0 128 0c16-2 84 17 84 111 0 61-51 94-84 80-1-1-38-15-38-63 0-47 38-62 38-62z" fill="url(#b)"/></svg>