<svg width="512" height="146" xmlns="http://www.w3.org/2000/svg"><g fill="none" fill-rule="evenodd"><path d="M476.7 60.5c-.4 0-1 1-1 1.6v20.1c0 .2.2.6.5.6l7.5.2c4 0 6.3-.6 7.6-1.1 3.3-1.7 4.9-5.3 4.9-9.3 0-9-6.3-12.3-15.6-12.3-.7-.1-2.5-.1-3.9.2zm23.8 41.2c0-9.1-6.7-14.2-18.9-14.2h-5.3c-.3.2-.7.4-.7.6 0 6.6 0 17 .2 21 .2 1.8 1.5 4.3 3 5 1.7 1 5.5 1.2 8 1.2 7.4 0 13.7-4 13.7-13.6zM458 55.4c1 0 3.7.3 10.8.3l18.6-.2c8 0 19.1 2.8 19.1 14.8 0 6-4.1 10.6-9.6 13-.2 0-.2.2 0 .3 7.8 2 14.6 6.8 14.6 15.8 0 8.9-5.5 14.5-13.6 18-4.8 2.1-11 2.9-17.1 2.9-4.7 0-17.4-.6-24.4-.4-.7-.3.7-3.6 1.3-4.2 1.7 0 3-.1 4.7-.7 2.5-.6 2.8-1.4 3.2-5.2l.1-22.8V64.6c0-2.8-1-3.8-3.1-4.3a166 166 0 00-6.3-1c-.4-.4 1.1-3.5 1.7-4zm-53.3 57.4c2.3 1.7 6.6 2.5 10.5 2.5 5 0 10-1 14.7-5.3 5-4.4 8.3-11.2 8.3-22.1 0-10.5-4-19-12-24a32.7 32.7 0 00-22.6-3.3c-.2.1-.9 1-.9 1.4-.2 1.9-.2 16-.2 24.4 0 8.6 0 20.6.2 22 0 1.3.7 3.5 2 4.4zm-21-57.4l11.8.3c5.8 0 10-.3 21-.3 9.2 0 17 2.5 22.5 7.2A30 30 0 01449 86.2c0 14-6.3 22-12.7 26.6a42.7 42.7 0 01-26.5 7.5l-26-.3h-.1c-.5-.8.7-4 1.5-4.2 2.4-.2 3-.3 4.2-.8 2-.7 2.3-1.8 2.6-5.2.3-6.3.2-14 .2-22.7l-.1-22.1c-.3-3.2-1.7-4-4.4-4.6-1.4-.3-3.3-.7-5.9-1-.3-.6 1.3-3.5 1.8-4z" fill="#8E714E"/><path d="M272 116.4c-2.3-.3-4-.7-6-1.6-.2-.2-.7-1-.7-1.5-.2-3.2-.2-12.4-.2-18.6 0-5-.8-9.3-3-12.4-2.4-3.5-6-5.5-10.6-5.5-4.1 0-9.6 2.8-14 6.6-.2.1-.9.8-.8-.2l.3-4.5c0-1.3-.7-1.9-.7-1.9-3 1.5-11.2 3.4-14.3 3.7-2.2.4-2.8 2.6-.4 3.3 2.5.7 4.2 1.6 5.5 2.4 1 .7.8 1.8.8 2.6.1 7 .1 17.5-.2 23.3 0 2.3-.7 3.2-2.4 3.5h.2l-3.9.7c-.5.5-.5 3.5 0 4.1l10.8-.2c6.1 0 9.3.2 10.8.2.7-.7.9-3.5.5-4.1-1.8-.1-3-.3-4.2-.7-1.7-.3-2.2-1.2-2.3-3l-.1-22.3c0-2 .5-2.9 1-3.4a14 14 0 018.6-3.2c3 0 5 1 6.4 2.1a9 9 0 013 5.9c.4 4 .2 11.8.2 18.6 0 3.7-.2 4.6-1.6 5-.7.3-2.3.7-4.3.9-.6.6-.4 3.5 0 4.2 2.7 0 5.9-.3 10.5-.3 5.7 0 9.4.3 10.9.3.4-.6.6-3.3.2-4zM297.6 81c-4.9 0-8 3.8-8 9.7 0 6 2.7 13 10.3 13 1.3 0 3.7-.6 4.8-1.9 1.8-1.7 3-5 3-8.5 0-7.7-3.8-12.3-10.1-12.3zm-.7 40.8a8 8 0 00-4 1c-3.8 2.5-5.5 5-5.5 7.8 0 2.7 1 4.8 3.2 6.6 2.7 2.3 6.3 3.4 11 3.4 9.5 0 13.6-5 13.6-10 0-3.5-1.7-5.8-5.3-7.1a37.3 37.3 0 00-13-1.7zm.7 24c-5.6 0-9.7-1.2-13.2-3.9a12.2 12.2 0 01-4.9-9.1 7 7 0 011.9-4.6 49 49 0 018.7-7.2c0-.2-.2-.4-.3-.5-4.4-1.6-5.7-4.3-6-5.8v-.2c-.1-.5-.3-1 .5-1.6l2.6-1.7c1.6-1 3.2-2 4.2-2.8.2-.1.2-.3.2-.5s-.2-.4-.3-.5c-6.5-2.1-9.7-6.9-9.7-14 0-4.8 2-9 5.9-11.7 2.6-2 9-4.5 13.3-4.5h.2c4.4 0 6.8 1 10.2 2.2 1.8.6 3.6.9 6 .9 3.6 0 5.1-1.1 6.4-2.4.1.2.3.6.4 1.8a7 7 0 01-1.2 4.3c-.7 1-2.4 1.7-4 1.7h-.5c-1.7-.1-2.4-.3-2.4-.3l-.4.2.1.6.1.2c.2.8.6 3.3.6 4 0 7.5-3 10.8-6.3 13.3a21.2 21.2 0 01-12.1 4.3h-1.3c-.7.3-2.6 1.2-2.6 2.7 0 1.4.9 3 4.8 3.4a81 81 0 0117.4 2c4.3 1.6 7 5.4 7 9.9 0 6.8-5 13.2-13 17.1-4 1.8-8 2.7-12.3 2.7zm52.6-64.3c-2 0-3.7.5-5 1.4-3.6 2.2-5.4 6.6-5.4 13 0 12.2 6 20.7 14.7 20.7 2.6 0 4.6-.8 6.4-2.3 2.7-2.2 4-6.6 4-12.8 0-12-6-20-14.7-20zm1.7 39.5c-15.7 0-21.4-11.5-21.4-22.3a20 20 0 019.2-17.6c4.3-2.6 9.5-4.1 14-4.1 12 0 20.5 8.6 20.5 21 0 8.3-3.3 15-9.7 19-3 2-8.3 4-12.6 4zM187.4 81.6c-2 0-3.7.5-5 1.4-3.6 2.2-5.4 6.6-5.4 13 0 12.2 6 20.7 14.7 20.7 2.6 0 4.7-.8 6.4-2.3 2.7-2.2 4-6.6 4-12.8 0-12-5.8-20-14.7-20zm1.7 39.5c-15.7 0-21.3-11.5-21.3-22.3a20 20 0 019-17.6c4.4-2.6 9.6-4.1 14.2-4.1 12 0 20.4 8.6 20.4 21 0 8.3-3.3 15-9.7 19-3 2-8.2 4-12.6 4zm-105.5-1a4 4 0 01-.3-2c0-.8.2-1.3.3-1.4 2-.3 3-.6 4-.9 1.9-.4 2.6-1.4 2.7-3.8.3-5.5.3-16 .2-23.3v-.2c0-.8 0-1.8-1-2.6-1.5-.9-3.2-1.7-5.5-2.4-.9-.2-1.4-.7-1.3-1.3 0-.5.5-1.2 1.7-1.3 3-.3 11-2.3 14.1-3.6.2.1.5.7.5 1.4v1c-.2 1-.3 2.3-.3 3.5 0 .3.4.6.8.6.2 0 .3 0 .5-.2a26 26 0 0114-6.3c4.6 0 8 2.2 10.8 6.6.1.3.3.4.6.4.2 0 .5-.1.6-.3 5.4-4.2 10.8-6.7 14.4-6.7 8.6 0 13.7 6.4 13.7 17.2l-.1 10.6v8.3c0 .5.6 2 1.6 2.2 1.3.7 3 1 5.3 1.3h.1c.2.7-.2 3-.5 3.5h-2.3a136.2 136.2 0 00-18.6 0 9 9 0 010-3.5c1.7-.2 2.5-.5 3.5-.8 1.9-.5 2.3-1.4 2.4-3.8 0-1.7.4-16.7-.2-20.3-.5-3.7-3.3-8-9.4-8-2.3 0-5.9 1-9.4 3.6-.2.2-.4.6-.4 1 .4 2 .4 4.2.4 7.6v17c0 2 1.2 2.4 2.2 2.8l1.4.3 3 .6a5 5 0 01-.1 2.6c-.1.6-.3.9-.4 1l-11-.2h-5.9l-4.1.1c-.1-.1-.3-.8-.3-1.8 0-.8.2-1.5.3-1.7l1.3-.1 3-.6c1.6-.5 2.1-1.3 2.2-3.3.3-4.6.6-17.8 0-21.2-1.2-5.3-4.2-8-9.1-8a17 17 0 00-9.4 3.6c-.5.4-.9 1.3-.9 2.1V95l.1 18.5c.1 1.1.5 2.4 2.6 2.9l2.1.4 1.7.2c.2.6 0 2.8-.3 3.5h-3.3a150.9 150.9 0 00-14.6 0c-1.3-.2-2.3-.2-3.4-.2z" fill="#442D22"/><path d="M35 142.3l-3.7-1.3s.4-19.3-6.5-20.6c-4.6-5.4.7-227 17.4-.8 0 0-5.8 2.9-6.8 7.8-1 4.8-.3 15-.3 15z" fill="#FFF"/><path d="M35 142.3l-3.7-1.3s.4-19.3-6.5-20.6c-4.6-5.4.7-227 17.4-.8 0 0-5.8 2.9-6.8 7.8-1 4.8-.3 15-.3 15z" fill="#A6A385"/><path d="M37 123.7s33.2-21.8 25.5-67.1c-7.5-33-25.1-43.8-27-48-2.2-2.9-4.2-8-4.2-8l1.4 91.6c0 .1-3 28 4.4 31.5" fill="#FFF"/><path d="M37 123.7s33.2-21.8 25.5-67.1c-7.5-33-25.1-43.8-27-48-2.2-2.9-4.2-8-4.2-8l1.4 91.6c0 .1-3 28 4.4 31.5" fill="#499D4A"/><path d="M29.3 124.9S-1.7 103.7.1 66.3a78.7 78.7 0 0128-59c2.7-3 2.8-4.1 3-7.1 2 4.2 1.6 62.1 1.8 69 .9 26.2-1.4 50.7-3.6 55.7z" fill="#FFF"/><path d="M29.3 124.9S-1.7 103.7.1 66.3a78.7 78.7 0 0128-59c2.7-3 2.8-4.1 3-7.1 2 4.2 1.6 62.1 1.8 69 .9 26.2-1.4 50.7-3.6 55.7z" fill="#58AA50"/></g></svg>