<svg width="512" height="108" xmlns="http://www.w3.org/2000/svg" preserveAspectRatio="xMidYMid"><g fill="#090"><path d="M96 107c-3 0-6-1-8-3L23 38v58a11 11 0 11-23 0V11a11 11 0 0119-8l66 66V11a11 11 0 1122 0v85a11 11 0 01-11 11M148 0l-3 6-24 43-3 5 3 6 24 41 3 6h62l3-6 17-36 8-16h-63c-6 0-11 5-11 11s5 11 11 11h27l-6 14h-35l-18-31 18-31h37l9 17h22L215 7l-3-7h-64M260 0c-6 0-11 6-11 11v29h22V11c1-6-5-11-11-11M296 107a11 11 0 01-11-11V12a11 11 0 1122 0v57l66-65a11 11 0 0119 8v84a11 11 0 11-23 0V38l-65 66c-2 2-5 3-8 3M474 54l35-35a11 11 0 00-16-15l-35 34-34-34a11 11 0 10-16 15l35 35-35 34a11 11 0 1016 16l34-35 35 35a11 11 0 0016 0c4-4 4-12 0-16l-35-34M260 107c-6 0-11-5-11-11V49h22v47c1 6-5 11-11 11"/></g></svg>