<svg width="512" height="314" xmlns="http://www.w3.org/2000/svg" xmlns:xlink="http://www.w3.org/1999/xlink" preserveAspectRatio="xMidYMid"><defs><linearGradient x1="68.2%" y1="17.5%" x2="27.8%" y2="89.8%" id="b"><stop stop-color="#41873F" offset="0%"/><stop stop-color="#418B3D" offset="32.9%"/><stop stop-color="#419637" offset="63.5%"/><stop stop-color="#3FA92D" offset="93.2%"/><stop stop-color="#3FAE2A" offset="100%"/></linearGradient><linearGradient x1="43.3%" y1="55.2%" x2="159.2%" y2="-18.3%" id="d"><stop stop-color="#41873F" offset="13.8%"/><stop stop-color="#54A044" offset="40.3%"/><stop stop-color="#66B848" offset="71.4%"/><stop stop-color="#6CC04A" offset="90.8%"/></linearGradient><linearGradient x1="-4413.8%" y1="13.4%" x2="5327.9%" y2="13.4%" id="e"><stop stop-color="#6CC04A" offset="9.2%"/><stop stop-color="#66B848" offset="28.6%"/><stop stop-color="#54A044" offset="59.7%"/><stop stop-color="#41873F" offset="86.2%"/></linearGradient><linearGradient x1="-4.4%" y1="50%" x2="101.5%" y2="50%" id="f"><stop stop-color="#6CC04A" offset="9.2%"/><stop stop-color="#66B848" offset="28.6%"/><stop stop-color="#54A044" offset="59.7%"/><stop stop-color="#41873F" offset="86.2%"/></linearGradient><linearGradient x1="-9713.8%" y1="36.2%" x2="27.9%" y2="36.2%" id="g"><stop stop-color="#6CC04A" offset="9.2%"/><stop stop-color="#66B848" offset="28.6%"/><stop stop-color="#54A044" offset="59.7%"/><stop stop-color="#41873F" offset="86.2%"/></linearGradient><linearGradient x1="-103.9%" y1="50.3%" x2="100.8%" y2="50.3%" id="h"><stop stop-color="#6CC04A" offset="9.2%"/><stop stop-color="#66B848" offset="28.6%"/><stop stop-color="#54A044" offset="59.7%"/><stop stop-color="#41873F" offset="86.2%"/></linearGradient><linearGradient x1="130.6%" y1="-211.1%" x2="4.4%" y2="201.6%" id="i"><stop stop-color="#41873F" offset="0%"/><stop stop-color="#418B3D" offset="32.9%"/><stop stop-color="#419637" offset="63.5%"/><stop stop-color="#3FA92D" offset="93.2%"/><stop stop-color="#3FAE2A" offset="100%"/></linearGradient><path id="a" d="M58 2h-6L3 30c-1 1-3 3-3 5v56c0 2 2 4 3 5l49 28c2 2 4 2 6 0l49-28 2-5V35l-2-5L58 2z"/></defs><g fill="none"><path d="M253 313l-5-1-15-9-1-2 7-3h2l11 7h2l46-27v-54-2l-46-26h-2l-46 26-1 2v53l1 1 13 7c7 4 11 0 11-4v-53l1-1h6l2 1v53c0 9-5 14-14 14-3 0-5 0-11-3l-12-7c-3-1-5-5-5-8v-53c0-4 2-7 5-9l46-26c3-2 7-2 10 0l46 26c3 2 5 5 5 9v53c0 3-2 7-5 8l-46 27-5 1zm14-37c-20 0-24-9-24-17l1-1h6l2 1c1 6 3 9 15 9 10 0 14-2 14-7 0-3-1-5-16-7-13-1-20-4-20-14 0-9 7-15 21-15s22 5 23 16l-1 1-1 1h-6l-1-1c-1-7-5-9-14-9-11 0-12 4-12 7s1 4 16 6c14 2 20 5 20 15s-8 15-23 15z" fill="#539E43"/><path d="M110 105c0-2-1-4-3-5L58 71h-6L3 100c-2 1-3 3-3 5v76l2 2h3l29-17c2-1 3-3 3-5v-35c0-2 1-4 3-5l12-7 3-1 3 1 13 7c1 1 3 3 3 5v35c0 2 1 4 3 5l29 17h3l1-2v-76zM346 0h-3l-2 3v75l-1 2h-2l-12-7h-6l-49 28c-2 1-3 3-3 5v57c0 2 1 4 3 5l49 28h6l49-28c2-1 3-3 3-5V22c0-2-1-4-3-5L346 0zm-5 144l-1 1-16 10h-2l-17-10v-20-2l17-9h2l16 9 1 2v19zM509 124c1-1 3-3 3-5v-14c0-2-2-4-3-5l-49-28h-6l-49 28c-2 1-3 3-3 6v56c0 2 1 4 3 5l49 28h6l29-17 2-2-2-3-49-28-2-2v-18l2-3 15-9h3l16 9 1 3v14l2 2h3l29-17z" fill="#333"/><path d="M456 122h1l10 5v13l-10 5h-1l-9-5-1-1v-11l1-1 9-5z" fill="#539E43"/><g transform="translate(134 71)"><mask id="c" fill="#fff"><use xlink:href="#a"/></mask><use fill="url(#b)" xlink:href="#a"/><g mask="url(#c)"><path d="M52 2L3 30c-2 1-3 3-3 5v56l2 4L56 1l-4 1zM57 125l1-1 49-28c2-1 3-3 3-5V35l-2-4-51 94z"/><path d="M107 30L58 2l-2-1L2 95l1 2 49 28h5l51-94-1-1z" fill="url(#d)"/></g><g mask="url(#c)"><path d="M110 91V35c0-2-1-4-3-5L58 2l-2-1 53 92 1-2zM3 30c-2 1-3 3-3 5v56c0 2 1 4 3 5l49 28 4 1L3 30z"/><path fill="url(#e)" fill-rule="evenodd" d="M50 1h1-1z" transform="translate(0 -9)"/><path d="M107 106l3-4-54-92-4 1L3 39l53 96 2-1 49-28z" fill="url(#f)" fill-rule="evenodd" transform="translate(0 -9)"/><path fill="url(#g)" fill-rule="evenodd" d="M111 105v-1 1z" transform="translate(0 -9)"/><path d="M107 106l-49 28h-2l1 2 54-31v-1l-2-2-2 4z" fill="url(#h)" fill-rule="evenodd" transform="translate(0 -9)"/><path d="M107 106l-49 28h-2l1 2 54-31v-1l-2-2-2 4z" fill="url(#i)" fill-rule="evenodd" transform="translate(0 -9)"/></g></g></g></svg>