<svg width="256" height="135" xmlns="http://www.w3.org/2000/svg" preserveAspectRatio="xMidYMid"><defs><radialGradient id="a" cx=".8" cy="-125.8" r="363.1" gradientTransform="matrix(.463 0 0 .463 76 82)" gradientUnits="userSpaceOnUse"><stop offset="0" stop-color="#fff"/><stop offset=".5" stop-color="#4c6b97"/><stop offset="1" stop-color="#231f20"/></radialGradient></defs><ellipse fill="url(#a)" cx="128" cy="67.3" rx="128" ry="67.3"/><ellipse fill="#6181B6" cx="128" cy="67.3" rx="123" ry="62.3"/><g fill="#FFF"><path d="M153 88l6-32c1-7 0-12-3-16-4-3-10-4-19-4h-10l3-16-1-2h-16l-2 1-6 34c-1-4-2-7-5-10-4-5-11-7-20-7H52l-2 1-13 68v1l2 1h15l2-1 3-17h11c5 0 10 0 14-2 4-1 7-3 11-6l6-8-3 14 1 2h16l2-1 7-37h10l6 1v5l-6 30v2h17l2-1zM85 62c-1 4-2 8-5 10l-12 2h-6l4-24h9c6 0 9 2 10 3v9zM215 43c-4-5-11-8-20-8h-28l-2 2-13 68v1l2 1h14l2-2 4-16h10c6 0 11 0 15-2 4-1 7-3 10-6a32 32 0 0010-18c2-8 1-15-4-20zm-15 19l-5 10-12 2h-7l5-24h8c7 0 9 2 10 3 2 1 2 4 1 9z"/></g><g fill="#000004"><path d="M75 48c5 0 9 1 11 3s2 6 1 11-3 9-6 11-7 3-13 3h-9l6-28h10zm-36 57h15l3-18h13l13-2c4-1 7-3 10-6a30 30 0 0010-16c1-8 0-14-4-19-4-4-10-7-19-7H52l-13 68zM113 20h15l-4 18h13c9 0 14 1 17 4s4 7 3 14l-6 31h-15l6-30c1-3 0-6-1-7s-3-2-7-2h-12l-7 39h-15l13-67zM190 48c5 0 9 1 11 3s2 6 1 11-3 9-6 11-7 3-13 3h-9l6-28h10zm-36 57h14l4-18h12l14-2c4-1 7-3 10-6a30 30 0 009-16c2-8 1-14-3-19-4-4-10-7-19-7h-28l-13 68z"/></g></svg>