<svg width="256" height="228" xmlns="http://www.w3.org/2000/svg" preserveAspectRatio="xMidYMid"><path d="M210 74l-8-3 2-5c6-31 2-55-12-63s-35 0-58 19l-6 6-4-4C101 4 78-5 64 3S46 34 52 63l2 8-10 3C17 83 0 98 0 114s19 31 47 41l7 2-2 9c-6 29-1 51 12 59 14 8 37-1 59-20l5-5 7 6c22 19 44 26 57 19 14-8 18-32 12-61l-1-7 5-2c29-10 48-25 48-41s-18-31-46-40zm-6 71l-4 1-13-32 12-32 8 2c24 8 38 20 38 30s-16 22-41 31zm-10 21c2 13 3 24 1 33s-5 14-9 16c-8 5-25-1-43-17l-7-6 22-27c12-1 24-3 34-6l2 7zM87 215c-8 2-14 2-18 0-8-4-11-22-7-47l2-8 35 5c7 10 14 19 22 27l-5 5c-10 8-20 14-29 18zm-37-70c-12-5-22-10-30-16-6-6-9-11-9-15 0-10 14-22 37-30l9-2 12 32-12 33-7-2zm13-85c-5-24-2-43 6-47 9-5 28 2 48 20l3 3-21 27-35 5-1-8zm110 28l-8-13 24 4-8 22-8-13zm-45-44l15 18a322 322 0 00-30 0l15-18zM83 88l-7 13c-4-7-6-15-9-22l24-4-8 13zm8 65l-24-4 9-22 7 13 8 13zm37 31l-15-18a382 382 0 0030 0l-15 18zm53-58l8 23-24 4a382 382 0 0016-27zm-17 8l-13 20a329 329 0 01-46 0l-13-19-11-21 11-21 13-19 23-1 23 1a329 329 0 0124 40l-11 20zm22-122c9 5 12 25 7 51l-1 5-35-5-21-27 6-5c19-17 36-23 44-19zm-58 79a23 23 0 110 46 23 23 0 010-46z" fill="#00D8FF"/></svg>