<svg viewBox="0 0 1375 1063" xmlns="http://www.w3.org/2000/svg"><path fill="#181417" opacity=".29" d="M620.72 0H674l-.11.93c-17.49-.16-34.99.33-52.47-.04l-.7-.89z"/><path fill="#272126" opacity=".48" d="M674 0h24.99l.08.97c-8.39-.13-16.79.2-25.18-.04L674 0z"/><path fill="#2e262d" opacity=".59" d="M698.99 0h71.92l.11.94c-23.98.17-47.97-.06-71.95.03l-.08-.97z"/><path fill="#241e23" opacity=".49" d="M770.91 0h130.68l.86.9c-43.81.32-87.63-.1-131.43.04l-.11-.94z"/><path fill="#1a161a" opacity=".33" d="M901.59 0h152.45v.96c-50.53.12-101.06-.02-151.59-.06l-.86-.9z"/><path fill="#191818" opacity=".17" d="M1054.04 0h260.11l-.01 1.08c-29.78.13-59.55-.03-89.33.02-19.07-.07-38.14-.15-57.2.04-25.68-.29-51.37-.24-77.06-.12-12.16-.18-24.34-.14-36.51-.06V0z"/><path fill="#202222" d="M241.47 3.15C363.99 2.17 486.51 1.48 609.02.89c.01.46.01 1.38.01 1.84.24.32.71.98.95 1.3 3.05-1.5 6.49-1.59 9.82-1.4 2.9.79 4.69 3.43 5.61 6.15.56-1.22 1.1-2.45 1.86-3.56 2.49.7 4.78 3.09 7.51 1.81-.46-.56-.91-1.12-1.35-1.68 2.17-.57 4.33-1.21 6.47-1.94.21.22.63.66.83.88-1.27.88-3.75 1.48-3.31 3.5.97.71 2.02 1.28 3.07 1.89.31.94.62 1.88.94 2.83.82.05 1.64.1 2.48.15.12-1.45.24-2.89.36-4.34 2.23 2.65 5.92 3.45 9.22 2.68.69.23 1.39.49 2.11.72.16-.59.47-1.76.63-2.35 1.02.88 1.87 2.67 3.49 2.19 2.06-.65 3.98-1.67 6.02-2.39.15-.88.3-1.76.47-2.64 1.3.54 2.64.99 4.01 1.37.33 1.32.66 2.65.99 3.98.36-.81.73-1.61 1.1-2.42.81.37 1.62.74 2.45 1.1.55-.68 1.11-1.36 1.68-2.05 1.79 1.04 3.35 2.41 4.34 4.25.13-1.75.43-3.48.97-5.15.53.9 1.06 1.81 1.59 2.71 4.51-2.86 9.55.78 14.3 1.06 1.76-.06 2.93 1.33 4.16 2.37.81-1.86 1.87-3.69 3.95-4.28.92.67 1.86 1.34 2.82 2.01 1.13-.58 2.27-1.16 3.43-1.73 1.32.64 2.66 1.28 4 1.92.81-.3 1.63-.61 2.47-.91.46.26 1.37.79 1.82 1.05.73-.36 1.47-.72 2.22-1.07 3.05.61 6.36.01 9.13 1.71.25-.6.51-1.19.78-1.79.95.3 1.91.6 2.88.9.26.93.52 1.87.8 2.81 1.1-.53 2.19-1.13 3.35-1.5.17 1.41.09 3.08 1.52 3.88.76-.58 1.52-1.15 2.3-1.73 1.39 2.04 3.09 3.85 4.95 5.49.48-.34.97-.68 1.46-1.02.23.5.68 1.49.9 1.99 2.49.28 5.16.21 7.4 1.48 1.33.91.56 2.79.73 4.13.74-1.04 1.49-2.06 2.26-3.09 1.08.65 2.18 1.31 3.29 1.96 1.1-1.65 2.19-3.31 3.31-4.96.44 1.69.87 3.38 1.24 5.09 1.15-1.85 2.28-3.72 3.38-5.61-.25-.46-.75-1.38-1-1.83 1.18 0 2.29.4 3.38.86-.3-1.89.82-3.27 2.25-4.33.19.48.56 1.44.74 1.92-.53.88-1.05 1.77-1.56 2.65 1.33-.28 2.65-.76 4.03-.78 1.51.46 2.67 1.65 3.97 2.52 1.82-.09 3.65-.17 5.48-.21.24.58.72 1.75.96 2.33.61-.38 1.23-.76 1.86-1.14.86.82 1.73 1.63 2.61 2.45 1.79-.79 3.55-2.68 5.66-1.82.42-.14.85-.3 1.3-.48.47 1.02.95 2.04 1.45 3.06.34-.68.69-1.36 1.05-2.05 1.72.53 3.47.98 5.24 1.34-.43-.88-.84-1.76-1.26-2.65 2.88-1 7.8-1.24 7.46-5.39.33.19 1 .56 1.33.75.26 1 .57 1.99.85 2.99.82-.38 1.66-.76 2.51-1.14.94 1.6 1.92 3.18 2.95 4.74-.35.48-.68.97-1 1.45.55.12 1.63.35 2.18.46-.44.65-.87 1.29-1.29 1.94 2.38-.74 4.59-1.94 6.48-3.57 2.78.78 6.27.62 8.16 3.18-.86 1.57-1.51 3.24-1.75 5.02 2.47-.26 5.18-1 7.39.62 2.21 1.82 5.07-.48 5.01-2.99-.01-1.72 1.69-2.31 2.89-3.16.35.86.71 1.72 1.08 2.59.32-1.48.72-2.95 1.38-4.33.76 2.52 1.17 5.13 1.77 7.69 1.72-2.44 3.16-5.06 4.59-7.68 1.33.6 3.43.6 3.9 2.3.81 2.7-.01 5.52-.01 8.27 1.02-1.05 1.62-2.41 2.21-3.75.72 1.92 1.77 3.7 3.5 4.88.58-.53 1.18-1.05 1.8-1.57-.89-.46-1.76-.91-2.62-1.37 1.9-.77 3.84-1.46 5.8-2.1.66.48 1.34.97 2.03 1.46-.02-.98-.03-1.95-.03-2.93-1.56.02-3.32.06-3.95-1.68 1.53-.72 2.89-1.73 4.19-2.82.71 2.65 2.15 5.83.54 8.41-1.5.67-3.08 1.08-4.64 1.55.94 1.35 1.9 2.68 2.9 4 1.92-1.08 3.72-2.47 3.72-4.89.45-.07 1.34-.2 1.79-.27-.06 1.13-.11 2.27-.14 3.41.9.45 1.81.91 2.73 1.37.72 4.07 5.02 5.4 8.16 7.23-3.2.59-5.17 3.26-7.37 5.39-.58-1.78-1.08-3.58-1.47-5.4-.21 1.42-.41 2.83-.61 4.25-.75.22-1.49.45-2.22.67.35.76.68 1.52 1.06 2.27-2.5 1.7-5.5 1.31-8.24.58-.32-1.69-.64-3.37-.95-5.05-1.23-.18-2.47-.35-3.69-.53-.32 1.14.18 2.83-1 3.52-2.16 1.29-3.43-1.46-4.87-2.58-1.25.82-2.48 1.65-3.71 2.47 1.27.28 2.54.58 3.83.88-2.03 2.91-5.13 0-7.23-1.28-.37 1.66-1.14 3.18-2.07 4.58 2.91 1.76 6.65 3.03 7.73 6.64.89-.69 1.77-1.41 2.76-1.99 1.3.36 2.36 1.27 3.5 1.98-.58.29-1.76.87-2.35 1.16-.12.51-.36 1.54-.48 2.05 1.22-.61 2.46-1.22 3.71-1.83-1.05 1.53-1.59 3.27-1.37 5.13.64-1.02 1.28-2.06 1.95-3.08.16.55.5 1.65.66 2.19 3-.29 5.36-2.44 8.33-2.86-.17 1.59-.61 3.11-1.46 4.47 1.47.89 2.95 1.79 4.42 2.71-1.81 2.23-4.97.68-7.39.84.41 2.37-1.13 5.12.37 7.18 1.44.07 2.53-.96 3.63-1.74.2.26.61.78.81 1.04.27-.68.56-1.36.87-2.05.57.41 1.16.82 1.76 1.23 3.97-1.36 7.55 1.52 11.55.8 3.91.11 7.54-2.32 11.49-1.56 1.42.12 3.25.78 4.31-.6.86-1.45 1.52-3.01 2.28-4.52.36 1.61.61 3.24.76 4.88 2.19.78 4.46 1.31 6.76 1.72.74-.71 1.49-1.41 2.25-2.11 1.9 1.33 3.99 2.76 6.44 2.26 4.92-.77 10.02.36 14.83-1.13 1.26.83 2.52 1.67 3.79 2.51-.53.69-1.04 1.37-1.54 2.06 1.27.4 2.54.89 3.91.87 11.41.1 22.83-.28 34.22.26-2.66 1.44-6 .27-8.67 1.86-24.17.04-48.35.21-72.52-.31-71.31.05-142.65-.14-213.96.08-8.67.88-17.35-.58-26.03.16-49 .41-98.03.13-147.04.41-26.49 0-52.98.36-79.47.16-4.45-3.31-10.36-1.9-15.51-1.85-8.74-.38-17.5.43-26.23-.13-9.55.97-19.14-.25-28.69.36-15.34.18-30.66-.26-45.99-.17-.03-1.17-.06-2.33-.09-3.5 2.72.73 5.57 1.39 8.25.13 2.53.29 5.09.37 6.64-2.03 1.4.82 2.63 2.3 4.37 2.29 1.41.11 2.28-1.19 3.32-1.91 2.8.35 5.46 1.38 8.22 1.92 1.83-.55 3.5-1.58 5.42-1.8l.52 1.92c.59-.4 1.19-.8 1.79-1.19.72.3 1.44.6 2.17.9.23-1.13.46-2.26.7-3.39 4.3 2.21 9.49 3.63 14.09 1.42 1.72-1.23 2.94.63 3.97 1.79.73-.56 1.46-1.12 2.2-1.68 1.83.58 3.71.33 5.56-.06 4.54 3.23 10.69 1.48 15.63.11 2.06-.94 3.97.54 5.96.91 2.23-.3 4.38-1.02 6.61-1.31.67-.6 1.35-1.2 2.03-1.8 1 1.24 2.02 2.47 3.04 3.7 3.13-2.33 6.78-.36 10.14-1.26-.44-.72-.89-1.44-1.32-2.16.55.13 1.67.39 2.23.52.24.53.73 1.57.97 2.1 2.4-1.11 5.04-1.38 7.38.07-.17-.78-.33-1.56-.49-2.33.69.24 1.35.69 2.11.75 3.79-1.04 8.04 1.4 11.36-1.41.14.56.4 1.68.53 2.24.31-.83.63-1.65.95-2.47 1.66.95 3.19 3.25 5.33 2.31 2.31-.76 4.76-1.01 7.08-1.76 1.27.24 2.59 1.37 3.89.76.95-1.01 1.12-2.51 1.7-3.73.62 1.17 1.18 2.38 1.85 3.52 1.41.73 2.7-.57 3.89-1.14.38.32 1.14.98 1.52 1.3.86-.92 1.73-1.84 2.6-2.76.09 1.07.18 2.15.28 3.24 1.97-1.26 3.98-2.44 6.05-3.53-.61-.34-1.22-.68-1.82-1.01-.53-3.01-2.59-5.34-4.49-7.59 2.07-1.5 5.71-1.64 6.13-4.68.28-1.89 1.8-3.78 1.03-5.68-1.06-.55-2.13-.05-3.14.28.33.47.98 1.4 1.3 1.87-.71.34-1.41.68-2.1 1.03-.67-1.14-1.33-2.27-1.99-3.4.53-.15 1.59-.45 2.12-.61-.53-.78-1.07-1.56-1.59-2.34 2.49.94 5.14 1.03 7.76.75-.15 1.16-.29 2.32-.42 3.48.93-.11 1.87-.22 2.82-.34.78-1.75 1.72-3.42 2.83-4.99 1.29.73 2.58 1.45 3.88 2.17-1.7 1.72-3.43 3.41-5.18 5.08-1 .07-1.99.13-2.97.21-.53.7-1.05 1.39-1.57 2.09 2.89-.71 5.78-1.42 8.75-1.77 1.03 3.22-1.59 5.2-3.76 7 2.67 1.47 6.12-.27 8.57 1.7-.02 1.76-.19 3.55.21 5.29 2.21-2.35 3.87-5.74 2.24-8.89-.9.47-1.8.94-2.69 1.41-1.36-2.07-2.61-4.27-3.15-6.7 1.65-3.46 4.61-6.08 7.11-8.93 1.39 2.1 2.36 4.62 4.74 5.83 1.15-.98 2.31-1.95 3.48-2.91-.91-.95-1.82-1.89-2.71-2.84.59-.3 1.2-.6 1.81-.9l-2.22-3.78c.45-.15 1.36-.47 1.82-.63.26-1.35-.18-3.12.98-4.11 1.13-.2 2.27-.16 3.42-.19-.14-1.04-.29-2.08-.42-3.12.77-.63 1.55-1.26 2.34-1.89-.21-.29-.61-.88-.82-1.17-3.17 1.37-5.11 4.22-7.37 6.68-1.12-.87-2.23-1.74-3.34-2.6 1.3-.23 2.6-.46 3.92-.7-1.46-.68-2.91-1.37-4.35-2.05-.03-.67-.04-1.34-.05-2.01-1.21.1-2.42.21-3.61.29 1.48-1.73 3.58-2.62 5.71-3.31-.97-.4-1.92-.81-2.87-1.21-.32-.98-.62-1.97-.92-2.95-1.84.74-3.68 1.46-5.52 2.16-.47-.88-.92-1.76-1.37-2.64-.53 1.03-.79 2.33-1.85 2.96-1.51-1.67.74-3.86-.07-5.83-.84 1.24-1.59 2.55-2.5 3.73-1.9 1.47-4.3.53-6.36.08-2.59-.66-5.27-.28-7.89-.15.01-.9.02-1.81.04-2.71-2.21.21-4.02 1.38-5.48 3-.68-1.76-1.54-3.44-2.48-5.07-.47 1.01-.92 2.04-1.36 3.07-.36-.18-1.09-.53-1.46-.7-.12-1.04-.24-2.07-.35-3.11-.61-.31-1.2-.62-1.8-.93-.46 1.49-.91 2.98-1.37 4.48-.87-.33-1.73-.67-2.59-1-.32.17-.94.52-1.26.69-.66-2.03-1.42-4.09-3.08-5.53-1.08 1.59-2.22 3.44-.72 5.19-.83.75-1.66 1.49-2.48 2.23l-1.65-2.43c.78-1.97 1.7-4.12.06-5.94-.24 1.28-.47 2.56-.67 3.85-.74-2.74-3.15-3.9-5.71-4.42-1.25.56-2.5 1.11-3.74 1.66.55-1.05 1.1-2.1 1.66-3.15-.26-.43-.78-1.29-1.04-1.73-1.26.89-2.52 1.78-3.77 2.66-.7-.43-1.38-.86-2.06-1.29-3.09.86-6.35.56-9.5.97.27-1.29.54-2.59.72-3.91-2.58 1.35-2.75 5.1-6.09 5.26.18-1.16.37-2.32.56-3.47-.71.36-1.43.71-2.14 1.07-1.6-.51-3.24-.89-4.9-1.13-.12.87-.23 1.75-.33 2.62-1.65-.49-3.29-.99-4.93-1.48-.35.74-.7 1.47-1.04 2.21-.92-1.21-1.84-2.42-2.75-3.63-.36 1.13-.72 2.25-1.07 3.38-1.97.15-3.94.13-5.89-.13 1.18-.86 2.37-1.71 3.56-2.56-1.4-1.62-3.59-1.4-5.5-1.52-.13.39-.38 1.18-.51 1.58-.75-.43-1.49-.86-2.23-1.28-.6.31-1.19.63-1.77.94.36.34 1.07 1.01 1.43 1.34-1.42.18-2.84.35-4.25.53-.29 1.23-.59 2.46-.9 3.69-1.32-1.03-1.87-3.51-.09-4.36 2.7-1.49 3.63-4.54 4.5-7.28-.38.27-1.13.82-1.5 1.1l-1-1.04c-.79.81-1.57 1.63-2.34 2.46.14-1.85.16-3.71-.02-5.56-2.04 1.99-4.81 3.27-6.26 5.81-.82-1.26-1.65-2.51-2.48-3.75-1.89.92-3.75 1.85-5.61 2.81-.66-.93-1.23-1.92-1.7-2.96-3.63.18-7.53.11-10.33 2.84l-.48-1.6c-1.28-.18-2.56-.38-3.82-.66-.69 1.6-2.12 2.47-3.75 2.86-.05-1.15-.08-2.3-.12-3.46-2.23.62-3.71 2.3-4.86 4.22-.26-1.06-.31-2.15-.28-3.23-1.8 1.25-4 1.16-6.05 1.59-2.53 1.04-4.71 3.47-7.68 2.76-.41-1.61-.9-3.2-1.72-4.65-.52.9-.45 2.32-1.52 2.8-.71-.67-1.38-1.37-2.04-2.08-1.79.56-3.37 1.56-4.79 2.77-1.31-.3-2.61-.59-3.92-.88-.11-2.1-.81-4.08-2.36-5.55-.66 1.27-1.31 2.54-1.94 3.82-.39-1.3-.76-2.6-1.14-3.9-1.1 1.14-2.18 2.29-3.26 3.45-3.04-.53-5.8-1.98-8.74-2.81-1.98-.17-2.77 1.61-3.42 3.11-.77-.3-1.54-.6-2.29-.9-.32.21-.94.63-1.25.84-.16-.47-.48-1.39-.64-1.85-.71-.1-1.41-.19-2.11-.29-.64-.64-1.27-1.29-1.9-1.94-2.03 1.97-4.6 2.73-7.28 1.61.48.62.97 1.24 1.46 1.86-3.8.92-7.67.28-11.28-1.08.03-.78.07-1.56.1-2.35-2.18.53-4.63 1.1-6.3-.85-.35.31-1.05.93-1.41 1.24-.86-.5-1.7-1.01-2.56-1.52-.18.95.81 2.62-.5 2.95-3.41-.42-6.8-1.15-9.82-2.86-1.76 1.15-3.69 1.96-5.79 2.2-.79-.83-1.6-1.65-2.4-2.47-1.65.33-3.29.72-4.96.87-1.44-.25-1.73-1.9-2.42-2.93z"/><path fill="#524f54" opacity=".97" d="M609.02.89c.42-.02 1.25-.05 1.66-.07.06 1.23-.49 1.87-1.65 1.91 0-.46 0-1.38-.01-1.84z"/><path fill="#282929" d="M610.68.82c3.58 0 7.16-.08 10.74.07 17.48.37 34.98-.12 52.47.04 8.39.24 16.79-.09 25.18.04 23.98-.09 47.97.14 71.95-.03 43.8-.14 87.62.28 131.43-.04 50.53.04 101.06.18 151.59.06 12.17-.08 24.35-.12 36.51.06 1.96.99 4.14 1.26 6.32 1.38-.27.24-.79.72-1.06.95-4.32-.58-8.66.76-12.93-.35-3.15-.92-6.1 1.83-9.17.55-2.79-.44-5.63.03-8.42.19.69 1.73 1.04 3.56.99 5.43.31.16.93.49 1.24.66.19.41.58 1.25.78 1.66.27-.15.82-.45 1.09-.59 1.73 1.02 3.73.88 5.66.65-.59.76-1.15 1.51-1.7 2.27 2.24.38 5.15.02 6.25 2.54 1.4.05 2.82.09 4.24.12.82-1.06 1.64-2.12 2.49-3.18 1.62 1.38 3.35 2.64 5.26 3.6.22.46.68 1.39.9 1.85.8-1.58 1.61-3.16 2.4-4.75 2.68.83 1.85 3.59 1.72 5.76.62.89 1.26 1.78 1.92 2.67 0 .9.01 1.79.04 2.69 2.57-1.11 4.73-2.92 4.85-5.93.49 1.01.99 2.01 1.52 3.01.28-.72.57-1.44.87-2.17 3.22.52 4.23 3.65 5.84 6.04-.27-2.66-.54-5.33-.53-8.01 1.51 1.92 2.65 4.13 2.44 6.66 1.08.76 2.18 1.51 3.3 2.25 2.01-1.22 4.16-2.41 5.75-4.16.94.28 1.89.61 2.86.92.16 2.7 2.26 4.49 4.12 6.19.89-1.2 1.77-2.43 2.79-3.56 1.03.32.93 1.61 1.36 2.44 1.74-.78 3.59-1.33 5.49-1.68.95-1.04 1.89-2.12 2.96-3.08.97.43 1.88 1 2.81 1.55.45-.26.93-.52 1.42-.78 2.56 1.42 5.39.55 7.45-1.33 2.19.58 4.32 1.4 6.37 2.41-.74.31-1.48.62-2.2.93.12.8.27 1.61.42 2.42.67.15 1.34.29 2.04.44.26 2.13 1.2 4.44-.07 6.44.21.36.64 1.07.85 1.43-.32.78-.63 1.56-.92 2.34 2.61-.99 5.32-1.73 8.08-2.22 3.02.99 3 4.62 3.8 7.17 1.88-.12 3.77-.27 5.67-.42.66-1.77.02-3.49-.5-5.19 1.27-2.21 3.88-2.87 6.2-3.36-.52.82-1.03 1.65-1.53 2.47.84.5 1.7 1.02 2.58 1.52.83-1.13 1.69-2.25 2.55-3.38 2.16.25 4.36.34 6.48.95 1.05.34 1.29.98.71 1.93-1.34.04-2.67-.13-3.97-.26 1.34 1.26 2.15 2.9 2.6 4.67 3.48 1.86 2.48 6.45 1.81 9.6-2.47-1.17-5.03.03-7.46.66.66 1.6 1.24 3.24 1.73 4.9-1.87-.57-3.3-1.88-4.54-3.33-1.08.61-2.15 1.23-3.22 1.83-1.17-1.36-2.78-2.03-4.52-2.25-.54-2.13-.92-4.75-3.17-5.77-2.25-.24-4.72-.32-6.66.98.73.29 2.2.87 2.93 1.15-1.55.4-3.08.81-4.61 1.21.14 1.04.29 2.08.47 3.13-1.66-1.59-3.52-4.14-6.13-3.21-.96 1.22-1.33 2.76-1.86 4.19-.44.23-1.32.69-1.77.92-.84-1.95.41-3.73 1.15-5.47-2.43.6-3.35 2.95-4.94 4.57-.98-1.17-2.01-2.32-3.25-3.2-1.02.99-2.01 1.97-2.98 2.97.33.46 1.01 1.38 1.35 1.84-.5 2.12-1.17 4.24-1.19 6.44.89 2.1 2.51 3.78 4.19 5.29 0-1.4-.01-2.79 0-4.18 1.25 1.94 2.45 3.93 3.54 5.98 2.77-2.56 5.89-5.15 6.41-9.13.39 1.59.71 3.2.97 4.83.58-.97 1.16-1.93 1.78-2.89 1.44 1.51 2.86 3.06 4.27 4.62.62-.49 1.26-.97 1.92-1.46.46 1.32.92 2.63 1.41 3.95.45-1.12.89-2.25 1.34-3.37 1.47-.06 2.94-.08 4.42-.07.03 1.42.08 2.83.14 4.24.76.8 1.54 1.6 2.34 2.39-2.08.29-4.13.67-6.13 1.25.6-1.14 1.21-2.29 1.83-3.43-1.37.02-2.71.05-4.04.07.39 2.62-1.16 4.74-2.46 6.83-.72-.25-1.42-.51-2.11-.76-.3-.69-.58-1.37-.86-2.06-1.1 1.17-2.19 2.33-3.27 3.49-.82-.26-1.61-.52-2.4-.78-.59.37-1.17.74-1.73 1.12-.2-.76-.38-1.52-.55-2.28-1.76-.18-3.54-.19-5.29 0-.49 1.01-1 2-1.53 2.98-1.03-.22-2-.54-2.97-.87-2.15 1.31-4.41.93-6.39-.46-.62.43-1.23.85-1.82 1.28-.56-.7-1.1-1.4-1.62-2.1-2.71 2.82-7.14 3.76-10.77 2.38-.13-.42-.4-1.26-.53-1.68-1.86.12-3.46 1-4.82 2.22-3.97-1.38-8.32-1.42-12.48-1.32-3.6 1.27-7.46 1.36-11.23 1.21-.94-.57-1.78-1.25-2.62-1.91-.1 1.01-.18 2.03-.25 3.05-2.76-1.2-5.93-1.76-8.89-1.15-1.09-.41-2.16-.83-3.2-1.26-1.33.87-2.1 2.2-1.84 3.82 29.66.41 59.34.21 89.01.36 17.02-.17 34.06.08 51.05.73 10-.22 20-.32 30 .08 5.18.23 10.46-.71 15.58.25.19.59.56 1.76.75 2.35-53.77-1.25-107.56-.73-161.34-1.08-44.15-.16-88.31-.08-132.47-.33 2.67-1.59 6.01-.42 8.67-1.86-11.39-.54-22.81-.16-34.22-.26-1.37.02-2.64-.47-3.91-.87.5-.69 1.01-1.37 1.54-2.06-1.27-.84-2.53-1.68-3.79-2.51-4.81 1.49-9.91.36-14.83 1.13-2.45.5-4.54-.93-6.44-2.26-.76.7-1.51 1.4-2.25 2.11-2.3-.41-4.57-.94-6.76-1.72-.15-1.64-.4-3.27-.76-4.88-.76 1.51-1.42 3.07-2.28 4.52-1.06 1.38-2.89.72-4.31.6-3.95-.76-7.58 1.67-11.49 1.56-4 .72-7.58-2.16-11.55-.8-.6-.41-1.19-.82-1.76-1.23-.31.69-.6 1.37-.87 2.05-.2-.26-.61-.78-.81-1.04-1.1.78-2.19 1.81-3.63 1.74-1.5-2.06.04-4.81-.37-7.18 2.42-.16 5.58 1.39 7.39-.84-1.47-.92-2.95-1.82-4.42-2.71.85-1.36 1.29-2.88 1.46-4.47-2.97.42-5.33 2.57-8.33 2.86-.16-.54-.5-1.64-.66-2.19-.67 1.02-1.31 2.06-1.95 3.08-.22-1.86.32-3.6 1.37-5.13-1.25.61-2.49 1.22-3.71 1.83.12-.51.36-1.54.48-2.05.59-.29 1.77-.87 2.35-1.16-1.14-.71-2.2-1.62-3.5-1.98-.99.58-1.87 1.3-2.76 1.99-1.08-3.61-4.82-4.88-7.73-6.64.93-1.4 1.7-2.92 2.07-4.58 2.1 1.28 5.2 4.19 7.23 1.28-1.29-.3-2.56-.6-3.83-.88 1.23-.82 2.46-1.65 3.71-2.47 1.44 1.12 2.71 3.87 4.87 2.58 1.18-.69.68-2.38 1-3.52 1.22.18 2.46.35 3.69.53.31 1.68.63 3.36.95 5.05 2.74.73 5.74 1.12 8.24-.58-.38-.75-.71-1.51-1.06-2.27.73-.22 1.47-.45 2.22-.67.2-1.42.4-2.83.61-4.25.39 1.82.89 3.62 1.47 5.4 2.2-2.13 4.17-4.8 7.37-5.39-3.14-1.83-7.44-3.16-8.16-7.23-.92-.46-1.83-.92-2.73-1.37.03-1.14.08-2.28.14-3.41-.45.07-1.34.2-1.79.27 0 2.42-1.8 3.81-3.72 4.89-1-1.32-1.96-2.65-2.9-4 1.56-.47 3.14-.88 4.64-1.55 1.61-2.58.17-5.76-.54-8.41-1.3 1.09-2.66 2.1-4.19 2.82.63 1.74 2.39 1.7 3.95 1.68 0 .98.01 1.95.03 2.93-.69-.49-1.37-.98-2.03-1.46-1.96.64-3.9 1.33-5.8 2.1.86.46 1.73.91 2.62 1.37-.62.52-1.22 1.04-1.8 1.57-1.73-1.18-2.78-2.96-3.5-4.88-.59 1.34-1.19 2.7-2.21 3.75 0-2.75.82-5.57.01-8.27-.47-1.7-2.57-1.7-3.9-2.3-1.43 2.62-2.87 5.24-4.59 7.68-.6-2.56-1.01-5.17-1.77-7.69-.66 1.38-1.06 2.85-1.38 4.33-.37-.87-.73-1.73-1.08-2.59-1.2.85-2.9 1.44-2.89 3.16.06 2.51-2.8 4.81-5.01 2.99-2.21-1.62-4.92-.88-7.39-.62.24-1.78.89-3.45 1.75-5.02-1.89-2.56-5.38-2.4-8.16-3.18-1.89 1.63-4.1 2.83-6.48 3.57.42-.65.85-1.29 1.29-1.94-.55-.11-1.63-.34-2.18-.46.32-.48.65-.97 1-1.45-1.03-1.56-2.01-3.14-2.95-4.74-.85.38-1.69.76-2.51 1.14-.28-1-.59-1.99-.85-2.99-.33-.19-1-.56-1.33-.75.34 4.15-4.58 4.39-7.46 5.39.42.89.83 1.77 1.26 2.65-1.77-.36-3.52-.81-5.24-1.34-.36.69-.71 1.37-1.05 2.05-.5-1.02-.98-2.04-1.45-3.06-.45.18-.88.34-1.3.48-2.11-.86-3.87 1.03-5.66 1.82-.88-.82-1.75-1.63-2.61-2.45-.63.38-1.25.76-1.86 1.14-.24-.58-.72-1.75-.96-2.33-1.83.04-3.66.12-5.48.21-1.3-.87-2.46-2.06-3.97-2.52-1.38.02-2.7.5-4.03.78.51-.88 1.03-1.77 1.56-2.65-.18-.48-.55-1.44-.74-1.92-1.43 1.06-2.55 2.44-2.25 4.33-1.09-.46-2.2-.86-3.38-.86.25.45.75 1.37 1 1.83-1.1 1.89-2.23 3.76-3.38 5.61-.37-1.71-.8-3.4-1.24-5.09-1.12 1.65-2.21 3.31-3.31 4.96-1.11-.65-2.21-1.31-3.29-1.96-.77 1.03-1.52 2.05-2.26 3.09-.17-1.34.6-3.22-.73-4.13-2.24-1.27-4.91-1.2-7.4-1.48-.22-.5-.67-1.49-.9-1.99-.49.34-.98.68-1.46 1.02-1.86-1.64-3.56-3.45-4.95-5.49-.78.58-1.54 1.15-2.3 1.73-1.43-.8-1.35-2.47-1.52-3.88-1.16.37-2.25.97-3.35 1.5-.28-.94-.54-1.88-.8-2.81-.97-.3-1.93-.6-2.88-.9-.27.6-.53 1.19-.78 1.79-2.77-1.7-6.08-1.1-9.13-1.71-.75.35-1.49.71-2.22 1.07-.45-.26-1.36-.79-1.82-1.05-.84.3-1.66.61-2.47.91-1.34-.64-2.68-1.28-4-1.92-1.16.57-2.3 1.15-3.43 1.73-.96-.67-1.9-1.34-2.82-2.01-2.08.59-3.14 2.42-3.95 4.28-1.23-1.04-2.4-2.43-4.16-2.37-4.75-.28-9.79-3.92-14.3-1.06-.53-.9-1.06-1.81-1.59-2.71-.54 1.67-.84 3.4-.97 5.15-.99-1.84-2.55-3.21-4.34-4.25-.57.69-1.13 1.37-1.68 2.05-.83-.36-1.64-.73-2.45-1.1-.37.81-.74 1.61-1.1 2.42-.33-1.33-.66-2.66-.99-3.98-1.37-.38-2.71-.83-4.01-1.37-.17.88-.32 1.76-.47 2.64-2.04.72-3.96 1.74-6.02 2.39-1.62.48-2.47-1.31-3.49-2.19-.16.59-.47 1.76-.63 2.35-.72-.23-1.42-.49-2.11-.72-3.3.77-6.99-.03-9.22-2.68-.12 1.45-.24 2.89-.36 4.34-.84-.05-1.66-.1-2.48-.15-.32-.95-.63-1.89-.94-2.83-1.05-.61-2.1-1.18-3.07-1.89-.44-2.02 2.04-2.62 3.31-3.5-.2-.22-.62-.66-.83-.88-2.14.73-4.3 1.37-6.47 1.94.44.56.89 1.12 1.35 1.68-2.73 1.28-5.02-1.11-7.51-1.81-.76 1.11-1.3 2.34-1.86 3.56-.92-2.72-2.71-5.36-5.61-6.15-3.33-.19-6.77-.1-9.82 1.4-.24-.32-.71-.98-.95-1.3 1.16-.04 1.71-.68 1.65-1.91z"/><path fill="#2e2f30" d="M1090.55 1.02c25.69-.12 51.38-.17 77.06.12 2.05.62 4.17.97 6.34 1.07 2.25 2.19 4.58 4.43 5.82 7.39-.87.69-1.72 1.38-2.56 2.07 2.16 2.8 3.4-1.64 4.32-3.33.24.74.5 1.48.78 2.22.56-.51 1.13-1.02 1.72-1.54.76.92 1.54 1.83 2.34 2.75 1.98-.44 3.95-1.17 6.01-1.18 2.61.17 2.97 3.35 4.12 5.15.96-2.72 2.77-4.96 5.23-6.48-.12 2.1-.67 4.62 1.51 5.89.35-1.67.66-3.35.99-5.02 1.25.8 2.52 1.6 3.78 2.42 1.57-.64 3.06-1.52 3.83-3.11 2.09 1.12 4.6.36 6.66 1.56-1.54.59-3.57.28-4.56 1.83 3.95 2.42 7.54-1.63 11.6-.51.76-.8 1.53-1.61 2.32-2.41 1.05 1.85 2.22 3.64 3.47 5.38 1.07-.36 2.17-.69 3.28-1.01.13.52.4 1.56.53 2.08.78-.37 1.64-.62 2.48-.19.5-.45 1.01-.91 1.56-1.35 2.38-.06 4.26-1.51 6.02-2.97 1.06 1.29 2.13 2.59 3.19 3.9 1.65-.68 3.24-1.52 4.77-2.48 1.31.74 2.63 1.49 3.97 2.23.83-.31 1.68-.64 2.55-.95 1.46 1.14 3.04 2.15 4.85 2.66-.1-.96-.19-1.92-.27-2.88 1.13.49 2.28.97 3.43 1.46.14.88.31 1.77.49 2.65 3.25-1.3 6.88-1.48 9.95-3.32 1.2.81 2.42 1.63 3.65 2.44-.69.25-2.05.75-2.73.99 3.3.5 6.98.59 9.12 3.62 2.16-.94 4.12-2.26 6.25-3.27 1.32.02 2.56.61 3.85.96-.89.48-1.75.97-2.6 1.45.69 1.49.62 3.89 2.6 4.32.79-.18 1.58-.51 2.39-.79 2.43.99 4.98 1.72 7.61 2.01.43.96.89 1.92 1.35 2.88.19-.64.56-1.94.75-2.59 2.08 1.75 4.49 3.24 7.31 2.4 0-.95.01-1.89.06-2.83 1.08 1.44 1.61 3.17 2.19 4.87 2.74-1.2 5.79-1.4 8.28.47-.92 3.38-4.45 2.65-7.11 2.55 1.6 4.54-1.1 9.14-5.28 11.04-.41 3.98-2.74 8.54-7.17 8.92-3 1.09-6.14 1.1-9.19.22.41-.68.83-1.35 1.27-2.03-2.6.1-3.57 2.44-4.23 4.57 1.49 1.09 2.33 2.62 2.14 4.48-1.07-.06-2.11-.14-3.14-.21-.29 1.56-.7 3.08-1.18 4.58.98 1.6 2 3.18 3.03 4.76-2.1 1.92-4.05 4-5.79 6.25l1.33.06c-2.89 1.45-4.09 4.21-4.28 7.3.8.46 1.61.91 2.44 1.37-1.68 1.11-3.24 2.4-4.75 3.72 1.56.18 3.14.45 4.69.84-1.29.34-2.57.67-3.84.98.65.88 1.31 1.78 1.98 2.67.12-.53.35-1.58.46-2.11.96-.05 1.94-.09 2.93-.13-.74 1.63-1.21 3.36-1.46 5.12-.81.74-1.6 1.47-2.37 2.2.34 1.41.3 2.85.32 4.28.64.86 1.61 1.35 2.48 1.99-3.23 1.06-2.45 4.97-1.28 7.33-.54.99-1.08 1.98-1.61 2.97.59 2.15 1.39 4.35.99 6.61-.18 1.91-1.09 3.93-.03 5.75-.42 1.76-.82 3.52-1.17 5.3-.85.65-1.69 1.26-2.51 1.91.84-.02 1.68-.04 2.55-.05.08 2.63 1 5.11 2.1 7.47-1.81 2.27-3.54 4.64-4.4 7.45 1.09.31 2.27.45 3.28 1.05.82 2.93-1.54 5.23-2.43 7.8-.37 2.88 1.95 5.2 2.08 8.05-.94.35-1.83.72-2.74 1.08.35.46 1.05 1.38 1.39 1.84-.55 2.21-1.22 4.41-2.42 6.37-.2-9.52.37-19.08-.58-28.56 1.07-9.27.11-18.59.12-27.88-.1-10.85.04-21.7-.23-32.54-.31-.2-.95-.6-1.27-.8-1.2.61-2.41 1.2-3.6 1.76-4.15-.49-8.27.32-12.41.16-.19-.59-.56-1.76-.75-2.35-5.12-.96-10.4-.02-15.58-.25-10-.4-20-.3-30-.08-16.99-.65-34.03-.9-51.05-.73-29.67-.15-59.35.05-89.01-.36-.26-1.62.51-2.95 1.84-3.82 1.04.43 2.11.85 3.2 1.26 2.96-.61 6.13-.05 8.89 1.15.07-1.02.15-2.04.25-3.05.84.66 1.68 1.34 2.62 1.91 3.77.15 7.63.06 11.23-1.21 4.16-.1 8.51-.06 12.48 1.32 1.36-1.22 2.96-2.1 4.82-2.22.13.42.4 1.26.53 1.68 3.63 1.38 8.06.44 10.77-2.38.52.7 1.06 1.4 1.62 2.1.59-.43 1.2-.85 1.82-1.28 1.98 1.39 4.24 1.77 6.39.46.97.33 1.94.65 2.97.87.53-.98 1.04-1.97 1.53-2.98 1.75-.19 3.53-.18 5.29 0 .17.76.35 1.52.55 2.28.56-.38 1.14-.75 1.73-1.12.79.26 1.58.52 2.4.78 1.08-1.16 2.17-2.32 3.27-3.49.28.69.56 1.37.86 2.06.69.25 1.39.51 2.11.76 1.3-2.09 2.85-4.21 2.46-6.83 1.33-.02 2.67-.05 4.04-.07-.62 1.14-1.23 2.29-1.83 3.43 2-.58 4.05-.96 6.13-1.25-.8-.79-1.58-1.59-2.34-2.39-.06-1.41-.11-2.82-.14-4.24-1.48-.01-2.95.01-4.42.07-.45 1.12-.89 2.25-1.34 3.37-.49-1.32-.95-2.63-1.41-3.95-.66.49-1.3.97-1.92 1.46-1.41-1.56-2.83-3.11-4.27-4.62-.62.96-1.2 1.92-1.78 2.89-.26-1.63-.58-3.24-.97-4.83-.52 3.98-3.64 6.57-6.41 9.13-1.09-2.05-2.29-4.04-3.54-5.98-.01 1.39 0 2.78 0 4.18-1.68-1.51-3.3-3.19-4.19-5.29.02-2.2.69-4.32 1.19-6.44-.34-.46-1.02-1.38-1.35-1.84.97-1 1.96-1.98 2.98-2.97 1.24.88 2.27 2.03 3.25 3.2 1.59-1.62 2.51-3.97 4.94-4.57-.74 1.74-1.99 3.52-1.15 5.47.45-.23 1.33-.69 1.77-.92.53-1.43.9-2.97 1.86-4.19 2.61-.93 4.47 1.62 6.13 3.21-.18-1.05-.33-2.09-.47-3.13 1.53-.4 3.06-.81 4.61-1.21-.73-.28-2.2-.86-2.93-1.15 1.94-1.3 4.41-1.22 6.66-.98 2.25 1.02 2.63 3.64 3.17 5.77 1.74.22 3.35.89 4.52 2.25 1.07-.6 2.14-1.22 3.22-1.83 1.24 1.45 2.67 2.76 4.54 3.33-.49-1.66-1.07-3.3-1.73-4.9 2.43-.63 4.99-1.83 7.46-.66.67-3.15 1.67-7.74-1.81-9.6-.45-1.77-1.26-3.41-2.6-4.67 1.3.13 2.63.3 3.97.26.58-.95.34-1.59-.71-1.93-2.12-.61-4.32-.7-6.48-.95-.86 1.13-1.72 2.25-2.55 3.38-.88-.5-1.74-1.02-2.58-1.52.5-.82 1.01-1.65 1.53-2.47-2.32.49-4.93 1.15-6.2 3.36.52 1.7 1.16 3.42.5 5.19-1.9.15-3.79.3-5.67.42-.8-2.55-.78-6.18-3.8-7.17-2.76.49-5.47 1.23-8.08 2.22.29-.78.6-1.56.92-2.34-.21-.36-.64-1.07-.85-1.43 1.27-2 .33-4.31.07-6.44-.7-.15-1.37-.29-2.04-.44-.15-.81-.3-1.62-.42-2.42.72-.31 1.46-.62 2.2-.93-2.05-1.01-4.18-1.83-6.37-2.41-2.06 1.88-4.89 2.75-7.45 1.33-.49.26-.97.52-1.42.78-.93-.55-1.84-1.12-2.81-1.55-1.07.96-2.01 2.04-2.96 3.08-1.9.35-3.75.9-5.49 1.68-.43-.83-.33-2.12-1.36-2.44-1.02 1.13-1.9 2.36-2.79 3.56-1.86-1.7-3.96-3.49-4.12-6.19-.97-.31-1.92-.64-2.86-.92-1.59 1.75-3.74 2.94-5.75 4.16-1.12-.74-2.22-1.49-3.3-2.25.21-2.53-.93-4.74-2.44-6.66-.01 2.68.26 5.35.53 8.01-1.61-2.39-2.62-5.52-5.84-6.04-.3.73-.59 1.45-.87 2.17-.53-1-1.03-2-1.52-3.01-.12 3.01-2.28 4.82-4.85 5.93-.03-.9-.04-1.79-.04-2.69-.66-.89-1.3-1.78-1.92-2.67.13-2.17.96-4.93-1.72-5.76-.79 1.59-1.6 3.17-2.4 4.75-.22-.46-.68-1.39-.9-1.85-1.91-.96-3.64-2.22-5.26-3.6-.85 1.06-1.67 2.12-2.49 3.18-1.42-.03-2.84-.07-4.24-.12-1.1-2.52-4.01-2.16-6.25-2.54.55-.76 1.11-1.51 1.7-2.27-1.93.23-3.93.37-5.66-.65-.27.14-.82.44-1.09.59-.2-.41-.59-1.25-.78-1.66-.31-.17-.93-.5-1.24-.66.05-1.87-.3-3.7-.99-5.43 2.79-.16 5.63-.63 8.42-.19 3.07 1.28 6.02-1.47 9.17-.55 4.27 1.11 8.61-.23 12.93.35.27-.23.79-.71 1.06-.95-2.18-.12-4.36-.39-6.32-1.38z"/><path fill="#353637" d="M1167.61 1.14c19.06-.19 38.13-.11 57.2-.04 14.02.48 28.06.21 42.09.35 6.67.15 13.37-.33 20.02.47 17-.67 34.06-.15 51.09-.28 2.84-.14 5.7.25 8.29 1.49 2.21-1.74 5.1-1.41 7.74-1.47 4.2-.07 8.41.11 12.61.43-1.95 2.81-4.84 4.81-6.65 7.71 3.12-2.31 5.51-5.45 8.7-7.7-1.79 5.16-.7 10.59-.95 15.91-.3 4.35.86 8.66.11 13-.42 25.68.54 51.35.46 77.03.18 43.34.45 86.68.5 130.02.68 12.61.38 25.26.52 37.9.1 27.2.33 54.41.31 81.61-1.17.89-1.78 2.02-1.83 3.41-.27 4.68.23 9.37-.03 14.05-.02 2.27-1.41 4.19-1.8 6.36.84 4.1 1.08 8.67-.98 12.47-1.96 4.11-1.91 8.89-.32 13.11-.45.6-.89 1.2-1.3 1.81.61.17 1.83.5 2.44.67-.81.3-1.61.6-2.38.9.57.65 1.18 1.28 1.8 1.94-.12.74-.23 1.5-.38 2.24-.27 1.53.24 3 .68 4.46-.46.67-.9 1.35-1.33 2.03.39.58.79 1.17 1.22 1.76-.77 1.31-1.51 2.62-2.24 3.95.66.5 1.34 1 2.04 1.52-.86 2.57-.91 5.3-.77 7.99.32 4.26-2.77 7.63-4.59 11.2.88-.03 1.78-.05 2.69-.06.1 2.54-1.5 4.88-1.34 7.35 1.4 1.1 3.09 1.78 4.69 2.59-.59.94-1.18 1.89-1.74 2.85.65 2.59.01 5.13-1.29 7.4-.69-.43-1.36-.86-2.02-1.28-1.45 1.2-.92 2.86-1 4.44.56.3 1.15.6 1.77.9-.65.59-1.27 1.18-1.88 1.78-.6-.32-1.17-.64-1.74-.94 0 3.82-4.84 4.86-4.59 8.64.98-.72 1.96-1.44 2.96-2.16.97 1.79 1.34 3.78.67 5.75-1.16-.56-2.31-1.12-3.44-1.68-.01.89.01 1.79.04 2.69-.79.32-1.55.65-2.3.99-.61-1.91-1.23-3.82-1.86-5.71-.98 2.83-.61 5.99-1.59 8.77-1.29-.41-1.17-2.23-1.73-3.28-1.02-.58-2.02-1.16-3-1.72.87-1.22 1.75-2.45 2.64-3.66-.98-.01-1.94-.01-2.88.01-.4 2.65-2.77 2.2-4.65 1.48.68 2.84 2.31 5.31 4.38 7.35-2.71-.58-5.43-.35-7.34 1.86-1.31-.93-.57-2.44-.34-3.7.8-2.99-1.02-5.82-1.28-8.76.83-1.58 2.5-.22 3.53.39.65-1.44 2.32-3.22.8-4.67-1.69-1.14-3.53-1.98-5.31-2.9 1.33-.71 3.34-.88 3.79-2.6.98-2.71 1.48-5.57 2.1-8.37-1.2-1.47-2.39-2.93-3.58-4.38.25-.39.74-1.18.98-1.57.92.87 1.85 1.74 2.79 2.62.46-1.84 1.17-3.64 1.29-5.54-.44-1.25-1.37-2.26-2.05-3.36-1.36.28-2.69.54-4.02.78 2.02-2.91 6.22-2.7 8.06.28.51-1.33 1.12-2.61 1.82-3.84.65.47 1.31.94 1.99 1.43.28-.85.58-1.68.9-2.51-1.6-.75-3.21-.85-4.62.28-.11-.47-.34-1.42-.45-1.9-.51.37-.99.74-1.45 1.12-.25-2.2-.92-4.29-2.17-6.12 1.27 0 2.55-.01 3.84-.01-.03-.92-.04-1.83-.03-2.74-1.16-.11-2.31-.21-3.44-.3-.79-2.7.34-5.17 2.26-7.05-.88-.47-1.76-.94-2.61-1.42.62-.72 1.25-1.44 1.9-2.15-.98-2.08-4.24-5.21-1.32-7.07 1.65-1.62 3.47.55 5.13 1.14-.45-2.44-2.53-3.31-4.53-4.22-1.51-1.27-.32-3.03.21-4.44-.55-.11-1.66-.31-2.21-.41.38-.49.77-.97 1.19-1.44-.59-.21-1.78-.62-2.37-.83-.22-2.23-.18-4.47.18-6.68.41 1.7.81 3.41 1.27 5.12.8-1.1.82-2.48.93-3.78 1.07-1.1 2.19-2.16 3.33-3.21-3.4.03-5.71-2.48-7.65-4.94.5-1 1.06-1.99 1.6-2.99-.92-1.08-2.08-1.9-3.25-2.63.35-1.47.73-2.94 1.13-4.4-1.48-.22-2.95-.42-4.41-.58-.22-.38-.65-1.14-.86-1.51.45-.73.93-1.45 1.42-2.17-1.18-.46-2.36-.91-3.51-1.35.01.76.05 1.53.1 2.3-1.21.4-2.4.79-3.58 1.19-.59 2.5-.77 5.29-2.71 7.19-.93.88-.79 2.2-.92 3.35.97.47 1.96.95 2.96 1.43-1.95.77-4.74 1.98-4.23 4.55.4 1.18-.28 2.23-.74 3.26 1.27-.52 2.57-1.01 3.89-1.48.28 1.44.54 2.88.82 4.34-.87-.34-1.71-.66-2.54-.98-1.12.81-2.23 1.63-3.32 2.46.9 1.61 1.82 3.23 2.74 4.85-.24.38-.71 1.15-.95 1.53.34 1.44.25 2.9-.12 4.32 2 2.8 1.93 6.33 3.22 9.43-.35.15-1.05.46-1.39.62-.33 1.32-.66 2.64-.97 3.96 1.05.21 2.12.42 3.21.63-.83 1.22-1.63 2.45-2.41 3.7.82 2.86-.96 5.2-1.91 7.73.46 2.67 3.09 3.77 5.25 4.85-1.5 1.56-3.05 3.06-4.7 4.46 1.19.08 2.38.17 3.6.27-1.03 2.82-2.31 5.55-3.92 8.09 3.22 1.93 2.52 6.19-.42 8 1.21.1 2.44.3 3.67.48-.73 2.07-1.89 3.95-3.8 5.1-1.09-.7-2.18-1.39-3.24-2.07-.34.27-1.03.83-1.37 1.1 1.02 2.29.65 5.15 2.23 7.14 1.38 1.61 3.17-.32 4.48-1.02.83 1.29 1.68 2.58 2.54 3.88-1.58 1.47-3.31.56-4.71-.59-.32 1.48-.61 2.97-.9 4.46.98-.53 1.99-1.05 3.01-1.57 1.02 3-.94 5.94-1.58 8.83 1.43-.7 2.87-1.41 4.32-2.11-.45 2.33-2.69 2.96-4.67 3.49.82.32 1.66.65 2.52.99-.57.18-1.69.55-2.26.73.38.9.78 1.81 1.2 2.72-1.22 1.35-2.92 1.72-4.65 1.65.49.6.99 1.2 1.51 1.81-.71.29-1.4.59-2.07.89.76 1.97 1.4 3.99 1.85 6.06-.47.64-.91 1.29-1.34 1.94.83-.02 1.67-.03 2.53-.03-.07 2.07.68 5.19-1.77 6.14-1.67-.61-3.17-1.56-4.7-2.4-1.57 2.3 1.82 4.02 2.83 5.87-2.13-.83-4.36-.97-6.61-.85.51-1.82 1.05-3.63 1.62-5.43-1.49.29-3.53-.56-3.14-2.34 1.33-1.75 2.94-3.26 4.41-4.89-1.78.4-3.55.77-5.31 1.11-.43-1.13-.83-2.24-1.24-3.35 1.41-.81 2.83-1.62 4.27-2.43-1.08-.97-2.14-1.94-3.19-2.91l-.32 2.36c-2.21-1.61-.45-5.15-1.15-7.55.48-.12 1.43-.36 1.91-.49-1.02-.64-2.05-1.27-3.03-1.89.41-1.93 1.69-3.4 3.09-4.71-.46-1.74-1.26-3.35-2.1-4.91-.7 1.41-1.38 2.84-2.06 4.26-.07-1.3-.07-2.59-.01-3.88 1.5-1.54 3.67-2.19 5.55-3.21-.73-.74-1.45-1.46-2.13-2.19-.08-.8-.13-1.6-.17-2.39-1.01-1.52-2.54-3.07-2.3-5.04.21-1.69.39-3.39.41-5.1.83-1.42 2.89-2.52 2.53-4.35-.46-.16-1.37-.46-1.83-.61.09-1.27.19-2.54.31-3.8-2.04-1.42-2.21-3.75-1.33-5.89-.27-.61-.52-1.23-.75-1.83 2.14.26 4.18.97 6.27 1.53-3.17-3.88-2.95-9.31-2.7-14.03-.63.94-1.26 1.88-1.86 2.83-1.25-.42-2.48-.83-3.7-1.24.13-2.14.76-4.2 1.54-6.19-1.84-.02-3.67-.04-5.49-.07.23 3.43-.8 6.78-.74 10.21.23 1.62-1.24 2.57-2.15 3.66 1.22 1.72 1.87 3.66 1.61 5.77 1.08 3.56-1.1 6.99-.49 10.58.67 3.33-1.21 6.54-.6 9.87.31 1.92-.57 3.75-.99 5.58.71.3 1.44.6 2.18.9-.92.88-1.82 1.77-2.7 2.67 2.06 1.83 2.28 4.49 2.8 7.02-.53.57-1.21 1.15-1.76 1.72.75.67 1.52 1.32 2.31 2-.44.37-.87.74-1.29 1.12-.41-.32-1.22-.98-1.63-1.3.46 2.91 2.63 5.11 3.18 7.96-.53.11-1.58.33-2.11.44.23 2.89.98 5.71 1.46 8.57.37 2.55-2.63 3.76-2.8 6.23.58.57 1.16 1.14 1.79 1.72-.42.59-.82 1.19-1.2 1.8.46.65.94 1.3 1.43 1.96-.89.25-1.77.5-2.63.76.56.75 1.12 1.5 1.72 2.26-.29.38-.86 1.13-1.14 1.51.62.6 1.25 1.21 1.92 1.83-1.99 3.93-1.45 8.34-.14 12.38-.72.79-1.45 1.56-2.05 2.43.16 1.23 1.16 2.18 1.75 3.27-.14 1.61-.03 3.22.21 4.83.55.22 1.12.45 1.71.68-.82.65-1.85 1.11-2.46 1.94-.95 4.01.63 7.97 1.76 11.77.7 1.73-1.17 2.94-1.95 4.26.49 1.11 1.49 2.2 1.19 3.53-.47 2.79-.42 5.67-1.38 8.36.81 1.14 1.71 2.25 2.42 3.5-.24 1.57-1.48 2.82-2.01 4.32-.08 1.39.5 2.71.83 4.06-.44.87-.88 1.75-1.28 2.64l1.84.36c-.06 1.18-.11 2.37-.13 3.58-.45.14-1.34.41-1.79.55-.42 2.82.75 5.39 2.14 7.77-3.81 4.93.01 10.81-.32 16.26-.28 2.69.57 5.27 1.8 7.64-.45.19-1.36.55-1.81.74.07.92.16 1.9-.28 2.73 1.1.18 2.24.38 3.39.58-1.17.3-2.32.6-3.46.91-.06 3.49-.34 7.06-1.87 10.25.46.2 1.39.61 1.85.81.22 2.07.04 4.16-.66 6.13.19.39.56 1.15.74 1.53-.79 2.34-1.84 4.65-2.09 7.14.29 1.77 1.82 3.18 1.99 4.97-.48 3.05-1.75 6.38-.13 9.31 1.12 2.15 2.19 5.7-.55 7.12-.38 1.76-.67 3.52-.93 5.3.89.54 1.81 1.09 2.73 1.64-.35.67-.68 1.34-.99 2.03-1.57-.22-3.13-.44-4.67-.63-.46-8.98.01-17.97-.09-26.95 0-16.36-.43-32.71-.38-49.06-.88-4.34.22-8.66.03-13.01-.23-28.32-.05-56.63-.27-84.94.13-29.69-.67-59.38-.53-89.07-.09-39.34-.45-78.68-.4-118.02.06-3.99-.77-7.95-.32-11.93.69-16.34-.5-32.68-.17-49.02-.42-24.54.11-49.08-.54-73.61 1.2-1.96 1.87-4.16 2.42-6.37-.34-.46-1.04-1.38-1.39-1.84.91-.36 1.8-.73 2.74-1.08-.13-2.85-2.45-5.17-2.08-8.05.89-2.57 3.25-4.87 2.43-7.8-1.01-.6-2.19-.74-3.28-1.05.86-2.81 2.59-5.18 4.4-7.45-1.1-2.36-2.02-4.84-2.1-7.47-.87.01-1.71.03-2.55.05.82-.65 1.66-1.26 2.51-1.91.35-1.78.75-3.54 1.17-5.3-1.06-1.82-.15-3.84.03-5.75.4-2.26-.4-4.46-.99-6.61.53-.99 1.07-1.98 1.61-2.97-1.17-2.36-1.95-6.27 1.28-7.33-.87-.64-1.84-1.13-2.48-1.99-.02-1.43.02-2.87-.32-4.28.77-.73 1.56-1.46 2.37-2.2.25-1.76.72-3.49 1.46-5.12-.99.04-1.97.08-2.93.13-.11.53-.34 1.58-.46 2.11-.67-.89-1.33-1.79-1.98-2.67 1.27-.31 2.55-.64 3.84-.98-1.55-.39-3.13-.66-4.69-.84 1.51-1.32 3.07-2.61 4.75-3.72-.83-.46-1.64-.91-2.44-1.37.19-3.09 1.39-5.85 4.28-7.3 2.72-2.16 5.1-4.73 7.32-7.41 1.41-.18 2.48-1.27 2.56-2.72 7.49-6.25 13.94-13.63 20.93-20.43 2.58-2.73 5.53-5.12 7.81-8.14-2.03.83-3.78 2.14-5.25 3.73-8.02 8.26-16.61 15.98-24.33 24.52-.93.52-1.61 1.24-2.04 2.19-.86.65-1.73 1.27-2.54 1.95-1.03-1.58-2.05-3.16-3.03-4.76.48-1.5.89-3.02 1.18-4.58 1.03.07 2.07.15 3.14.21.19-1.86-.65-3.39-2.14-4.48.66-2.13 1.63-4.47 4.23-4.57-.44.68-.86 1.35-1.27 2.03 3.05.88 6.19.87 9.19-.22 4.43-.38 6.76-4.94 7.17-8.92 4.18-1.9 6.88-6.5 5.28-11.04 2.66.1 6.19.83 7.11-2.55-2.49-1.87-5.54-1.67-8.28-.47-.58-1.7-1.11-3.43-2.19-4.87-.05.94-.06 1.88-.06 2.83-2.82.84-5.23-.65-7.31-2.4-.19.65-.56 1.95-.75 2.59-.46-.96-.92-1.92-1.35-2.88-2.63-.29-5.18-1.02-7.61-2.01-.81.28-1.6.61-2.39.79-1.98-.43-1.91-2.83-2.6-4.32.85-.48 1.71-.97 2.6-1.45-1.29-.35-2.53-.94-3.85-.96-2.13 1.01-4.09 2.33-6.25 3.27-2.14-3.03-5.82-3.12-9.12-3.62.68-.24 2.04-.74 2.73-.99-1.23-.81-2.45-1.63-3.65-2.44-3.07 1.84-6.7 2.02-9.95 3.32-.18-.88-.35-1.77-.49-2.65-1.15-.49-2.3-.97-3.43-1.46.08.96.17 1.92.27 2.88-1.81-.51-3.39-1.52-4.85-2.66-.87.31-1.72.64-2.55.95-1.34-.74-2.66-1.49-3.97-2.23-1.53.96-3.12 1.8-4.77 2.48-1.06-1.31-2.13-2.61-3.19-3.9-1.76 1.46-3.64 2.91-6.02 2.97-.55.44-1.06.9-1.56 1.35-.84-.43-1.7-.18-2.48.19-.13-.52-.4-1.56-.53-2.08-1.11.32-2.21.65-3.28 1.01-1.25-1.74-2.42-3.53-3.47-5.38-.79.8-1.56 1.61-2.32 2.41-4.06-1.12-7.65 2.93-11.6.51.99-1.55 3.02-1.24 4.56-1.83-2.06-1.2-4.57-.44-6.66-1.56-.77 1.59-2.26 2.47-3.83 3.11-1.26-.82-2.53-1.62-3.78-2.42-.33 1.67-.64 3.35-.99 5.02-2.18-1.27-1.63-3.79-1.51-5.89-2.46 1.52-4.27 3.76-5.23 6.48-1.15-1.8-1.51-4.98-4.12-5.15-2.06.01-4.03.74-6.01 1.18-.8-.92-1.58-1.83-2.34-2.75-.59.52-1.16 1.03-1.72 1.54-.28-.74-.54-1.48-.78-2.22-.92 1.69-2.16 6.13-4.32 3.33.84-.69 1.69-1.38 2.56-2.07-1.24-2.96-3.57-5.2-5.82-7.39-2.17-.1-4.29-.45-6.34-1.07m180.91 19.05c-1.1.8-2.84 2-2.43 3.55 1.28.41 1.99-1.3 2.9-1.94 1.11-.51 1.03-2.64-.47-1.61m-11.25 9.92c-1.14.09-2.17 2.5-.6 2.62 1.12-.09 2.21-2.48.6-2.62z"/><path fill="#7f888e" d="M1224.81 1.1c29.78-.05 59.55.11 89.33-.02 17.77-.36 35.53-.02 53.3.05-.2.24-.6.72-.79.96-4.2-.32-8.41-.5-12.61-.43-2.64.06-5.53-.27-7.74 1.47-2.59-1.24-5.45-1.63-8.29-1.49-17.03.13-34.09-.39-51.09.28-6.65-.8-13.35-.32-20.02-.47-14.03-.14-28.07.13-42.09-.35z"/><path fill="#e5e4e1" d="M1367.44 1.13c.55-.03 1.65-.11 2.21-.15 1.13 223.08 1.95 446.17 3.02 669.25-.38-3.52-.56-7.05-1.09-10.54-.18-27.89-.27-55.79-.33-83.68-.8-21.65-.37-43.33-.59-64.99-.07-33.69-.32-67.37-.39-101.06-.89-17.44-.25-34.93-.62-52.39.02-27.2-.21-54.41-.31-81.61-.14-12.64.16-25.29-.52-37.9-.05-43.34-.32-86.68-.5-130.02.08-25.68-.88-51.35-.46-77.03.75-4.34-.41-8.65-.11-13 .25-5.32-.84-10.75.95-15.91-3.19 2.25-5.58 5.39-8.7 7.7 1.81-2.9 4.7-4.9 6.65-7.71.19-.24.59-.72.79-.96z"/><path fill="#191a1a" d="M62.13 4.78c59.77-.86 119.56-1.19 179.34-1.63.69 1.03.98 2.68 2.42 2.93 1.67-.15 3.31-.54 4.96-.87.8.82 1.61 1.64 2.4 2.47 2.1-.24 4.03-1.05 5.79-2.2 3.02 1.71 6.41 2.44 9.82 2.86 1.31-.33.32-2 .5-2.95.86.51 1.7 1.02 2.56 1.52.36-.31 1.06-.93 1.41-1.24 1.67 1.95 4.12 1.38 6.3.85-.03.79-.07 1.57-.1 2.35 3.61 1.36 7.48 2 11.28 1.08-.49-.62-.98-1.24-1.46-1.86 2.68 1.12 5.25.36 7.28-1.61.63.65 1.26 1.3 1.9 1.94.7.1 1.4.19 2.11.29.16.46.48 1.38.64 1.85.31-.21.93-.63 1.25-.84.75.3 1.52.6 2.29.9.65-1.5 1.44-3.28 3.42-3.11 2.94.83 5.7 2.28 8.74 2.81 1.08-1.16 2.16-2.31 3.26-3.45.38 1.3.75 2.6 1.14 3.9.63-1.28 1.28-2.55 1.94-3.82 1.55 1.47 2.25 3.45 2.36 5.55 1.31.29 2.61.58 3.92.88 1.42-1.21 3-2.21 4.79-2.77.66.71 1.33 1.41 2.04 2.08 1.07-.48 1-1.9 1.52-2.8.82 1.45 1.31 3.04 1.72 4.65 2.97.71 5.15-1.72 7.68-2.76 2.05-.43 4.25-.34 6.05-1.59-.03 1.08.02 2.17.28 3.23 1.15-1.92 2.63-3.6 4.86-4.22.04 1.16.07 2.31.12 3.46 1.63-.39 3.06-1.26 3.75-2.86 1.26.28 2.54.48 3.82.66l.48 1.6c2.8-2.73 6.7-2.66 10.33-2.84.47 1.04 1.04 2.03 1.7 2.96 1.86-.96 3.72-1.89 5.61-2.81.83 1.24 1.66 2.49 2.48 3.75 1.45-2.54 4.22-3.82 6.26-5.81.18 1.85.16 3.71.02 5.56.77-.83 1.55-1.65 2.34-2.46l1 1.04c.37-.28 1.12-.83 1.5-1.1-.87 2.74-1.8 5.79-4.5 7.28-1.78.85-1.23 3.33.09 4.36.31-1.23.61-2.46.9-3.69 1.41-.18 2.83-.35 4.25-.53-.36-.33-1.07-1-1.43-1.34.58-.31 1.17-.63 1.77-.94.74.42 1.48.85 2.23 1.28.13-.4.38-1.19.51-1.58 1.91.12 4.1-.1 5.5 1.52-1.19.85-2.38 1.7-3.56 2.56 1.95.26 3.92.28 5.89.13.35-1.13.71-2.25 1.07-3.38.91 1.21 1.83 2.42 2.75 3.63.34-.74.69-1.47 1.04-2.21 1.64.49 3.28.99 4.93 1.48.1-.87.21-1.75.33-2.62 1.66.24 3.3.62 4.9 1.13.71-.36 1.43-.71 2.14-1.07-.19 1.15-.38 2.31-.56 3.47 3.34-.16 3.51-3.91 6.09-5.26-.18 1.32-.45 2.62-.72 3.91 3.15-.41 6.41-.11 9.5-.97.68.43 1.36.86 2.06 1.29 1.25-.88 2.51-1.77 3.77-2.66.26.44.78 1.3 1.04 1.73-.56 1.05-1.11 2.1-1.66 3.15 1.24-.55 2.49-1.1 3.74-1.66 2.56.52 4.97 1.68 5.71 4.42.2-1.29.43-2.57.67-3.85 1.64 1.82.72 3.97-.06 5.94l1.65 2.43c.82-.74 1.65-1.48 2.48-2.23-1.5-1.75-.36-3.6.72-5.19 1.66 1.44 2.42 3.5 3.08 5.53.32-.17.94-.52 1.26-.69.86.33 1.72.67 2.59 1 .46-1.5.91-2.99 1.37-4.48.6.31 1.19.62 1.8.93.11 1.04.23 2.07.35 3.11.37.17 1.1.52 1.46.7.44-1.03.89-2.06 1.36-3.07.94 1.63 1.8 3.31 2.48 5.07 1.46-1.62 3.27-2.79 5.48-3-.02.9-.03 1.81-.04 2.71 2.62-.13 5.3-.51 7.89.15 2.06.45 4.46 1.39 6.36-.08.91-1.18 1.66-2.49 2.5-3.73.81 1.97-1.44 4.16.07 5.83 1.06-.63 1.32-1.93 1.85-2.96.45.88.9 1.76 1.37 2.64 1.84-.7 3.68-1.42 5.52-2.16.3.98.6 1.97.92 2.95.95.4 1.9.81 2.87 1.21-2.13.69-4.23 1.58-5.71 3.31 1.19-.08 2.4-.19 3.61-.29.01.67.02 1.34.05 2.01 1.44.68 2.89 1.37 4.35 2.05-1.32.24-2.62.47-3.92.7 1.11.86 2.22 1.73 3.34 2.6 2.26-2.46 4.2-5.31 7.37-6.68.21.29.61.88.82 1.17-.79.63-1.57 1.26-2.34 1.89.13 1.04.28 2.08.42 3.12-1.15.03-2.29-.01-3.42.19-1.16.99-.72 2.76-.98 4.11-.46.16-1.37.48-1.82.63l2.22 3.78c-.61.3-1.22.6-1.81.9.89.95 1.8 1.89 2.71 2.84-1.17.96-2.33 1.93-3.48 2.91-2.38-1.21-3.35-3.73-4.74-5.83-2.5 2.85-5.46 5.47-7.11 8.93.54 2.43 1.79 4.63 3.15 6.7.89-.47 1.79-.94 2.69-1.41 1.63 3.15-.03 6.54-2.24 8.89-.4-1.74-.23-3.53-.21-5.29-2.45-1.97-5.9-.23-8.57-1.7 2.17-1.8 4.79-3.78 3.76-7-2.97.35-5.86 1.06-8.75 1.77.52-.7 1.04-1.39 1.57-2.09.98-.08 1.97-.14 2.97-.21 1.75-1.67 3.48-3.36 5.18-5.08-1.3-.72-2.59-1.44-3.88-2.17-1.11 1.57-2.05 3.24-2.83 4.99-.95.12-1.89.23-2.82.34.13-1.16.27-2.32.42-3.48-2.62.28-5.27.19-7.76-.75.52.78 1.06 1.56 1.59 2.34-.53.16-1.59.46-2.12.61.66 1.13 1.32 2.26 1.99 3.4.69-.35 1.39-.69 2.1-1.03-.32-.47-.97-1.4-1.3-1.87 1.01-.33 2.08-.83 3.14-.28.77 1.9-.75 3.79-1.03 5.68-.42 3.04-4.06 3.18-6.13 4.68 1.9 2.25 3.96 4.58 4.49 7.59.6.33 1.21.67 1.82 1.01-2.07 1.09-4.08 2.27-6.05 3.53-.1-1.09-.19-2.17-.28-3.24-.87.92-1.74 1.84-2.6 2.76-.38-.32-1.14-.98-1.52-1.3-1.19.57-2.48 1.87-3.89 1.14-.67-1.14-1.23-2.35-1.85-3.52-.58 1.22-.75 2.72-1.7 3.73-1.3.61-2.62-.52-3.89-.76-2.32.75-4.77 1-7.08 1.76-2.14.94-3.67-1.36-5.33-2.31-.32.82-.64 1.64-.95 2.47-.13-.56-.39-1.68-.53-2.24-3.32 2.81-7.57.37-11.36 1.41-.76-.06-1.42-.51-2.11-.75.16.77.32 1.55.49 2.33-2.34-1.45-4.98-1.18-7.38-.07-.24-.53-.73-1.57-.97-2.1-.56-.13-1.68-.39-2.23-.52.43.72.88 1.44 1.32 2.16-3.36.9-7.01-1.07-10.14 1.26-1.02-1.23-2.04-2.46-3.04-3.7-.68.6-1.36 1.2-2.03 1.8-2.23.29-4.38 1.01-6.61 1.31-1.99-.37-3.9-1.85-5.96-.91-4.94 1.37-11.09 3.12-15.63-.11-1.85.39-3.73.64-5.56.06-.74.56-1.47 1.12-2.2 1.68-1.03-1.16-2.25-3.02-3.97-1.79-4.6 2.21-9.79.79-14.09-1.42-.24 1.13-.47 2.26-.7 3.39-.73-.3-1.45-.6-2.17-.9-.6.39-1.2.79-1.79 1.19l-.52-1.92c-1.92.22-3.59 1.25-5.42 1.8-2.76-.54-5.42-1.57-8.22-1.92-1.04.72-1.91 2.02-3.32 1.91-1.74.01-2.97-1.47-4.37-2.29-1.55 2.4-4.11 2.32-6.64 2.03-2.68 1.26-5.53.6-8.25-.13.03 1.17.06 2.33.09 3.5 15.33-.09 30.65.35 45.99.17 9.55-.61 19.14.61 28.69-.36 8.73.56 17.49-.25 26.23.13 5.15-.05 11.06-1.46 15.51 1.85-11.83.31-23.68-.25-35.49.57-50.34.1-100.69.4-151.03.55-3.34-.02-6.66.52-9.99.51-41.02.05-82.04.36-123.06.49-9.29.77-18.62.45-27.94.65-.57-.55-1.72-1.66-2.3-2.22-.08 160.93-.04 321.86.08 482.79.85 7.99.62 16.04.34 24.06-1 9.31.35 18.67-.25 27.98.73 40.47.24 81.04.62 121.56-.25 74.8.27 149.6.23 224.41-.11 2.74.36 5.46.71 8.18-.66.43-1.54.31-2.21.74-3.57 2.46-6.27 5.94-9.39 8.93-10.24 10.1-20.32 20.35-30.55 30.46-1.16 1.09-1.93 2.49-2.63 3.92 1.1-.73 2.23-1.43 3.2-2.32 11.87-12.14 24-24.03 36.01-36.03 1.51-.14 3.02-.23 4.54-.34.9.81 1.8 1.65 2.71 2.48.3-.88.67-1.71.97-2.57 2.32.84 4.78 2.21 7.29 1.24.79.58 1.57 1.19 2.35 1.8 1.08-.39 2.17-.77 3.25-1.13.76.29 1.52.6 2.29.93 1.88-1.58 3.9-.45 4.86 1.49.55-.41 1.1-.81 1.65-1.19 3.12 1.99 6.62 1.44 9.79-.09.87.91 1.73 1.83 2.58 2.76-.68 1.99-.47 4.08-.22 6.14-.47.08-1.41.25-1.88.34.05.39.13 1.16.17 1.55 2.39 1.38 4.96 2.42 7.63 3.14-1.45.49-2.89 1-4.33 1.54 1.42.75 2.91 1.38 4.53 1.54 2.85.23 5.5 1.83 8.42 1.34 2.62.87 2.99 4.57 5.63 5.75 1.78-1.28 3.56-2.56 5.31-3.87-1.28-2.76-1.36-5.8-1.08-8.76 3.18 1.01 5.74 3.18 8.15 5.43-1.3 1.19-2.43 2.56-3.27 4.13 1.08.56 2.17 1.14 3.25 1.73-.21.46-.42.95-.62 1.45.56 1.07 1.13 2.15 1.71 3.24-2.59.49-4.86 1.84-6.43 3.98 1.86.01 3.72.01 5.58.02-.44-.67-.87-1.32-1.31-1.96.95.07 1.91.15 2.87.25.34 1.15.69 2.3 1.04 3.47 1.07-1.21 2.15-2.4 3.26-3.57.45 2.19.52 4.43.6 6.66-1.73.88-3.42 1.91-5.28 2.54-1.89-.33-3.56-1.35-5.29-2.11-1.38 2.84-.69 5.9.13 8.79 1.63-.56 3.26-1.1 4.9-1.61-.18.92-.36 1.87-.54 2.82-2.46-.06-4.43 1.39-6.27 2.84-1.55-1.87-3.25-3.71-4.21-5.97-.26-1.97 1.68-2.83 3-3.75-.33-1.03-.65-2.04-.97-3.04-.86 3.14-4.35 3.55-6.1 5.92-.46-.28-.92-.53-1.38-.77-.72.64-1.43 1.29-2.13 1.95 1.03.61 2.06 1.22 3.09 1.84.09 3.5 2.67 5.97 4.78 8.47-2.29-.65-4.81-.65-6.14 1.66 1.64-.04 3.29-.11 4.94-.16-1.57 2.47-3.21 4.89-4.91 7.29-.55-.36-1.1-.71-1.65-1.04-.36 2.36-.53 4.96-2.52 6.62.01-1.18.06-2.37.11-3.54-1.53-.7-3.06-1.38-4.58-2.05-.54.61-1.06 1.24-1.59 1.89-.51-.41-1.01-.8-1.52-1.18-.35.3-1.06.9-1.41 1.19-.44-.37-.88-.74-1.32-1.08-.16.56-.46 1.69-.61 2.25-1.32-.1-2.63-.18-3.94-.26-.17-.38-.49-1.14-.66-1.52 1.3-.31 2.6-.63 3.9-.92-.56-.62-1.11-1.23-1.66-1.83-1.14.43-2.28.88-3.41 1.35-.59-.28-1.18-.55-1.77-.8-1.9 1.31-3.81 2.63-5.7 3.97-.36-.86-.71-1.71-1.06-2.54-.24 1.26-.47 2.54-.71 3.83-.86-.95-1.72-1.88-2.59-2.8-.85.44-1.69.93-2.54 1.41-.44-.4-1.33-1.2-1.77-1.6-1.5 1.47-2.78 3.24-4.61 4.33-1.76.54-3.5-.55-5.17-.99 1.18-.79 2.35-1.6 3.51-2.39-2.18-1.18-4.57.06-6.8.47-3.35.52-5.44 3.78-8.71 4.41-1.28-.71-2.44-1.62-3.74-2.27-2.11.94-4.01 2.26-5.98 3.45.18-1.25.37-2.48.57-3.7-2.13.93-4.4 1.46-6.61 2.16-.29-.76-.57-1.51-.85-2.25-.27.87-.54 1.75-.81 2.65-.52-1.03-1.03-2.05-1.55-3.06-.79.89-1.58 1.8-2.37 2.71-.68-.46-1.36-.9-2.03-1.32 0 1.91-.3 4.48-2.68 4.79-3.62.29-6.2-2.96-8.99-4.78-1.05.74-2.1 1.5-3.15 2.26-2.71-1.69-5.44 1.14-8.15.07-.78-1.25.52-2.24 1.04-3.24-3.51-.97-4.69 3.02-5.22 5.63-2.13.07-4.26.13-6.39.22-.09.76-.29 2.29-.38 3.06-7.01-.08-14.02.16-21.02-.14 1.78-.59.91-3.07-.75-1.77-.17-11.04-.13-22.08-.14-33.12.39-50.74-.05-101.5.06-152.25 2.35.52 4.74.87 7.14 1.11.01-3.42-4.83-2.17-7.16-2.2-.01-56.22-.28-112.45-.17-168.68-.18-5.11.4-10.27-.54-15.33-.4-137.55.04-275.11-.1-412.66.05-54.63-.08-109.26.07-163.88.6-32.7-.1-65.43.5-98.14-.04-2.85.08-5.7.52-8.52 2.94-.54 5.9-1.06 8.9-1.04 13.01-.01 26.03-.11 39.04-.15 4.04-.05 8.12.33 12.1-.5M5.17 57.12c-.43 1.25 1.56 2.44 2.57 1.74.41-1.24-1.56-2.42-2.57-1.74m38.92 885.01c.31 3.2 3.03-1.64 0 0z"/><path fill="#100e0e" opacity=".17" d="M0 4.93l1.06.36c-.04 35.95-.03 71.89.01 107.84-.15 54.62-.02 109.25-.07 163.88.14 137.55-.3 275.11.1 412.66-.21 13.48.14 26.97-.14 40.46L0 730V4.93z"/><path fill="#575b65" d="M1.06 5.29c20.35-.22 40.72-.05 61.07-.51-3.98.83-8.06.45-12.1.5-13.01.04-26.03.14-39.04.15-3-.02-5.96.5-8.9 1.04-.44 2.82-.56 5.67-.52 8.52-.6 32.71.1 65.44-.5 98.14-.04-35.95-.05-71.89-.01-107.84z"/><path fill="#120c0e" d="M1348.52 20.19c1.5-1.03 1.58 1.1.47 1.61-.91.64-1.62 2.35-2.9 1.94-.41-1.55 1.33-2.75 2.43-3.55z"/><path fill="#4f5253" d="M1337.27 30.11c1.61.14.52 2.53-.6 2.62-1.57-.12-.54-2.53.6-2.62z"/><path fill="#101213" d="M1326.26 42.27c1.47-1.59 3.22-2.9 5.25-3.73-2.28 3.02-5.23 5.41-7.81 8.14-6.99 6.8-13.44 14.18-20.93 20.43l-.84-.32c7.72-8.54 16.31-16.26 24.33-24.52z"/><path fill="#4c493b" d="M5.17 57.12c1.01-.68 2.98.5 2.57 1.74-1.01.7-3-.49-2.57-1.74z"/><path fill="#b4b4b3" d="M1299.89 68.98c.43-.95 1.11-1.67 2.04-2.19l.84.32c-.08 1.45-1.15 2.54-2.56 2.72l-.32-.85z"/><path fill="#0f0f10" d="M1297.35 70.93c.81-.68 1.68-1.3 2.54-1.95l.32.85c-2.22 2.68-4.6 5.25-7.32 7.41l-1.33-.06c1.74-2.25 3.69-4.33 5.79-6.25z"/><path fill="#120c0e" d="M1283.33 86.62c.32.2.96.6 1.27.8.27 10.84.13 21.69.23 32.54-.01 9.29.95 18.61-.12 27.88.95 9.48.38 19.04.58 28.56.65 24.53.12 49.07.54 73.61-.33 16.34.86 32.68.17 49.02-.45 3.98.38 7.94.32 11.93-.05 39.34.31 78.68.4 118.02-.14 29.69.66 59.38.53 89.07.22 28.31.04 56.62.27 84.94.19 4.35-.91 8.67-.03 13.01-.05 16.35.38 32.7.38 49.06.1 8.98-.37 17.97.09 26.95.74 23.96.08 47.95.4 71.92-.1 9.01.28 18.03-.09 27.03-.36.34-1.08 1.02-1.44 1.35-.17-2.63-.21-5.29-1.06-7.81-.35-57.14-.15-114.3-.65-171.45.52-10.36-.59-20.68-.36-31.04-.1-57.35-.38-114.7-.51-172.05.23-5.67-.7-11.3-.49-16.96-.08-44.68-.28-89.36-.45-134.05-.17-10.97.25-21.96-.53-32.92-.14-39.7-.21-79.41-.51-119.12-.62-5.28-.78-10.59-.8-15.9-.21-1.72 1.03-3.03 1.86-4.39z"/><path fill="#d5cac6" d="M265.08 102.29c1.38-.29 1.92.26 1.64 1.64-1.39.3-1.93-.25-1.64-1.64z"/><path fill="#3a3b3d" d="M1367.82 360.98c.05-1.39.66-2.52 1.83-3.41.37 17.46-.27 34.95.62 52.39.07 33.69.32 67.37.39 101.06.22 21.66-.21 43.34.59 64.99.06 27.89.15 55.79.33 83.68-.15 44.44.31 88.89.2 133.33-.27 7.34.7 14.64.47 21.98.01 20.21.24 40.42.21 60.63-.57 2.07-1.02 4.2-.92 6.38.16 28.01.07 56.01.19 84.01-.13 2.35-1.43 4.61-.74 7.01.7 2.47.09 4.92-1.14 7.11.53 1.94 1.77 3.87 1.37 5.97-1.52 4.49-.31 9.28-.65 13.92-.03 2.24.4 4.44.65 6.68.42 4.09-.84 8.18-.04 12.27.34 6 .5 12.09-.5 18.06-.38 3.29.66 6.58.27 9.88-.58 2.49-1.77 4.79-2.78 7.13l-.46.43c-.88-.75-1.76-1.43-2.59-2.18l1.11-.29c-4.98-5.77-10.56-10.97-15.92-16.36-14.29-14.72-28.97-29.04-43.36-43.65-1.5-1.2-2.58-3.88-4.87-3.15-1.33-1.33-2.67-2.64-3.99-3.95.14-.4.43-1.2.57-1.6-1.83-2.25-3.75-4.69-6.34-6.02l-1.26.66c-1.16-1.21-2.26-2.47-3.21-3.81.34-.8 1.01-2.4 1.34-3.2-.01-29.98-.37-59.96-.47-89.95-.23-16.9.35-33.85-.57-50.71l-1.34-.46c-.57 7.51.47 15.08-.56 22.57-1.03-6.08-.35-12.27-.56-18.39.09-16.5-.33-33 .08-49.49.85 2.52.89 5.18 1.06 7.81.36-.33 1.08-1.01 1.44-1.35.37-9-.01-18.02.09-27.03-.32-23.97.34-47.96-.4-71.92 1.54.19 3.1.41 4.67.63.31-.69.64-1.36.99-2.03-.92-.55-1.84-1.1-2.73-1.64.26-1.78.55-3.54.93-5.3 2.74-1.42 1.67-4.97.55-7.12-1.62-2.93-.35-6.26.13-9.31-.17-1.79-1.7-3.2-1.99-4.97.25-2.49 1.3-4.8 2.09-7.14-.18-.38-.55-1.14-.74-1.53.7-1.97.88-4.06.66-6.13-.46-.2-1.39-.61-1.85-.81 1.53-3.19 1.81-6.76 1.87-10.25 1.14-.31 2.29-.61 3.46-.91-1.15-.2-2.29-.4-3.39-.58.44-.83.35-1.81.28-2.73.45-.19 1.36-.55 1.81-.74-1.23-2.37-2.08-4.95-1.8-7.64.33-5.45-3.49-11.33.32-16.26-1.39-2.38-2.56-4.95-2.14-7.77.45-.14 1.34-.41 1.79-.55.02-1.21.07-2.4.13-3.58l-1.84-.36c.4-.89.84-1.77 1.28-2.64-.33-1.35-.91-2.67-.83-4.06.53-1.5 1.77-2.75 2.01-4.32-.71-1.25-1.61-2.36-2.42-3.5.96-2.69.91-5.57 1.38-8.36.3-1.33-.7-2.42-1.19-3.53.78-1.32 2.65-2.53 1.95-4.26-1.13-3.8-2.71-7.76-1.76-11.77.61-.83 1.64-1.29 2.46-1.94-.59-.23-1.16-.46-1.71-.68-.24-1.61-.35-3.22-.21-4.83-.59-1.09-1.59-2.04-1.75-3.27.6-.87 1.33-1.64 2.05-2.43-1.31-4.04-1.85-8.45.14-12.38-.67-.62-1.3-1.23-1.92-1.83.28-.38.85-1.13 1.14-1.51-.6-.76-1.16-1.51-1.72-2.26.86-.26 1.74-.51 2.63-.76-.49-.66-.97-1.31-1.43-1.96.38-.61.78-1.21 1.2-1.8-.63-.58-1.21-1.15-1.79-1.72.17-2.47 3.17-3.68 2.8-6.23-.48-2.86-1.23-5.68-1.46-8.57.53-.11 1.58-.33 2.11-.44-.55-2.85-2.72-5.05-3.18-7.96.41.32 1.22.98 1.63 1.3.42-.38.85-.75 1.29-1.12-.79-.68-1.56-1.33-2.31-2 .55-.57 1.23-1.15 1.76-1.72-.52-2.53-.74-5.19-2.8-7.02.88-.9 1.78-1.79 2.7-2.67-.74-.3-1.47-.6-2.18-.9.42-1.83 1.3-3.66.99-5.58-.61-3.33 1.27-6.54.6-9.87-.61-3.59 1.57-7.02.49-10.58.26-2.11-.39-4.05-1.61-5.77.91-1.09 2.38-2.04 2.15-3.66-.06-3.43.97-6.78.74-10.21 1.82.03 3.65.05 5.49.07-.78 1.99-1.41 4.05-1.54 6.19 1.22.41 2.45.82 3.7 1.24.6-.95 1.23-1.89 1.86-2.83-.25 4.72-.47 10.15 2.7 14.03-2.09-.56-4.13-1.27-6.27-1.53.23.6.48 1.22.75 1.83-.88 2.14-.71 4.47 1.33 5.89-.12 1.26-.22 2.53-.31 3.8.46.15 1.37.45 1.83.61.36 1.83-1.7 2.93-2.53 4.35-.02 1.71-.2 3.41-.41 5.1-.24 1.97 1.29 3.52 2.3 5.04.04.79.09 1.59.17 2.39.68.73 1.4 1.45 2.13 2.19-1.88 1.02-4.05 1.67-5.55 3.21-.06 1.29-.06 2.58.01 3.88.68-1.42 1.36-2.85 2.06-4.26.84 1.56 1.64 3.17 2.1 4.91-1.4 1.31-2.68 2.78-3.09 4.71.98.62 2.01 1.25 3.03 1.89-.48.13-1.43.37-1.91.49.7 2.4-1.06 5.94 1.15 7.55l.32-2.36c1.05.97 2.11 1.94 3.19 2.91-1.44.81-2.86 1.62-4.27 2.43.41 1.11.81 2.22 1.24 3.35 1.76-.34 3.53-.71 5.31-1.11-1.47 1.63-3.08 3.14-4.41 4.89-.39 1.78 1.65 2.63 3.14 2.34-.57 1.8-1.11 3.61-1.62 5.43 2.25-.12 4.48.02 6.61.85-1.01-1.85-4.4-3.57-2.83-5.87 1.53.84 3.03 1.79 4.7 2.4 2.45-.95 1.7-4.07 1.77-6.14-.86 0-1.7.01-2.53.03.43-.65.87-1.3 1.34-1.94-.45-2.07-1.09-4.09-1.85-6.06.67-.3 1.36-.6 2.07-.89-.52-.61-1.02-1.21-1.51-1.81 1.73.07 3.43-.3 4.65-1.65-.42-.91-.82-1.82-1.2-2.72.57-.18 1.69-.55 2.26-.73-.86-.34-1.7-.67-2.52-.99 1.98-.53 4.22-1.16 4.67-3.49-1.45.7-2.89 1.41-4.32 2.11.64-2.89 2.6-5.83 1.58-8.83-1.02.52-2.03 1.04-3.01 1.57.29-1.49.58-2.98.9-4.46 1.4 1.15 3.13 2.06 4.71.59-.86-1.3-1.71-2.59-2.54-3.88-1.31.7-3.1 2.63-4.48 1.02-1.58-1.99-1.21-4.85-2.23-7.14.34-.27 1.03-.83 1.37-1.1 1.06.68 2.15 1.37 3.24 2.07 1.91-1.15 3.07-3.03 3.8-5.1-1.23-.18-2.46-.38-3.67-.48 2.94-1.81 3.64-6.07.42-8 1.61-2.54 2.89-5.27 3.92-8.09-1.22-.1-2.41-.19-3.6-.27 1.65-1.4 3.2-2.9 4.7-4.46-2.16-1.08-4.79-2.18-5.25-4.85.95-2.53 2.73-4.87 1.91-7.73.78-1.25 1.58-2.48 2.41-3.7-1.09-.21-2.16-.42-3.21-.63.31-1.32.64-2.64.97-3.96.34-.16 1.04-.47 1.39-.62-1.29-3.1-1.22-6.63-3.22-9.43.37-1.42.46-2.88.12-4.32.24-.38.71-1.15.95-1.53-.92-1.62-1.84-3.24-2.74-4.85 1.09-.83 2.2-1.65 3.32-2.46.83.32 1.67.64 2.54.98-.28-1.46-.54-2.9-.82-4.34-1.32.47-2.62.96-3.89 1.48.46-1.03 1.14-2.08.74-3.26-.51-2.57 2.28-3.78 4.23-4.55-1-.48-1.99-.96-2.96-1.43.13-1.15-.01-2.47.92-3.35 1.94-1.9 2.12-4.69 2.71-7.19 1.18-.4 2.37-.79 3.58-1.19-.05-.77-.09-1.54-.1-2.3 1.15.44 2.33.89 3.51 1.35-.49.72-.97 1.44-1.42 2.17.21.37.64 1.13.86 1.51 1.46.16 2.93.36 4.41.58-.4 1.46-.78 2.93-1.13 4.4 1.17.73 2.33 1.55 3.25 2.63-.54 1-1.1 1.99-1.6 2.99 1.94 2.46 4.25 4.97 7.65 4.94-1.14 1.05-2.26 2.11-3.33 3.21-.11 1.3-.13 2.68-.93 3.78-.46-1.71-.86-3.42-1.27-5.12-.36 2.21-.4 4.45-.18 6.68.59.21 1.78.62 2.37.83-.42.47-.81.95-1.19 1.44.55.1 1.66.3 2.21.41-.53 1.41-1.72 3.17-.21 4.44 2 .91 4.08 1.78 4.53 4.22-1.66-.59-3.48-2.76-5.13-1.14-2.92 1.86.34 4.99 1.32 7.07-.65.71-1.28 1.43-1.9 2.15.85.48 1.73.95 2.61 1.42-1.92 1.88-3.05 4.35-2.26 7.05 1.13.09 2.28.19 3.44.3-.01.91 0 1.82.03 2.74-1.29 0-2.57.01-3.84.01 1.25 1.83 1.92 3.92 2.17 6.12.46-.38.94-.75 1.45-1.12.11.48.34 1.43.45 1.9 1.41-1.13 3.02-1.03 4.62-.28-.32.83-.62 1.66-.9 2.51-.68-.49-1.34-.96-1.99-1.43-.7 1.23-1.31 2.51-1.82 3.84-1.84-2.98-6.04-3.19-8.06-.28 1.33-.24 2.66-.5 4.02-.78.68 1.1 1.61 2.11 2.05 3.36-.12 1.9-.83 3.7-1.29 5.54-.94-.88-1.87-1.75-2.79-2.62-.24.39-.73 1.18-.98 1.57 1.19 1.45 2.38 2.91 3.58 4.38-.62 2.8-1.12 5.66-2.1 8.37-.45 1.72-2.46 1.89-3.79 2.6 1.78.92 3.62 1.76 5.31 2.9 1.52 1.45-.15 3.23-.8 4.67-1.03-.61-2.7-1.97-3.53-.39.26 2.94 2.08 5.77 1.28 8.76-.23 1.26-.97 2.77.34 3.7 1.91-2.21 4.63-2.44 7.34-1.86-2.07-2.04-3.7-4.51-4.38-7.35 1.88.72 4.25 1.17 4.65-1.48.94-.02 1.9-.02 2.88-.01-.89 1.21-1.77 2.44-2.64 3.66.98.56 1.98 1.14 3 1.72.56 1.05.44 2.87 1.73 3.28.98-2.78.61-5.94 1.59-8.77.63 1.89 1.25 3.8 1.86 5.71.75-.34 1.51-.67 2.3-.99-.03-.9-.05-1.8-.04-2.69 1.13.56 2.28 1.12 3.44 1.68.67-1.97.3-3.96-.67-5.75-1 .72-1.98 1.44-2.96 2.16-.25-3.78 4.59-4.82 4.59-8.64.57.3 1.14.62 1.74.94.61-.6 1.23-1.19 1.88-1.78-.62-.3-1.21-.6-1.77-.9.08-1.58-.45-3.24 1-4.44.66.42 1.33.85 2.02 1.28 1.3-2.27 1.94-4.81 1.29-7.4.56-.96 1.15-1.91 1.74-2.85-1.6-.81-3.29-1.49-4.69-2.59-.16-2.47 1.44-4.81 1.34-7.35-.91.01-1.81.03-2.69.06 1.82-3.57 4.91-6.94 4.59-11.2-.14-2.69-.09-5.42.77-7.99-.7-.52-1.38-1.02-2.04-1.52.73-1.33 1.47-2.64 2.24-3.95-.43-.59-.83-1.18-1.22-1.76.43-.68.87-1.36 1.33-2.03-.44-1.46-.95-2.93-.68-4.46.15-.74.26-1.5.38-2.24-.62-.66-1.23-1.29-1.8-1.94.77-.3 1.57-.6 2.38-.9-.61-.17-1.83-.5-2.44-.67.41-.61.85-1.21 1.3-1.81-1.59-4.22-1.64-9 .32-13.11 2.06-3.8 1.82-8.37.98-12.47.39-2.17 1.78-4.09 1.8-6.36.26-4.68-.24-9.37.03-14.05m-40.72 379.3c.6.54.6.54 0 0m-40.36 52.65c-.35 12.01-.18 24.05.01 36.06 2.46.55 1.41-2.65 1.7-3.96-.09-10.81.19-21.62-.2-32.41l-1.51.31z"/><path fill="#c5c7c8" d="M1371.58 659.69c.53 3.49.71 7.02 1.09 10.54.38 72.94.69 145.88 1.06 218.82.24 56.97.67 113.93.65 170.89-.61-.86-1.23-1.67-1.87-2.43 1.76-2.2-.28-4.99.14-7.48 1.21-8.94.4-17.97.5-26.94.18-8.04-.65-16.07-.02-24.09-.01-1.87-.06-3.71-.14-5.55-.25-5.15-.18-10.3.1-15.43-.25-15-.38-30-.03-44.99-.65-19.13.02-38.28-.6-57.4.03-20.21-.2-40.42-.21-60.63.23-7.34-.74-14.64-.47-21.98.11-44.44-.35-88.89-.2-133.33z"/><path fill="#404142" d="M1.1 689.67c.94 5.06.36 10.22.54 15.33-.11 56.23.16 112.46.17 168.68l.02 1.09c-.11 50.75.33 101.51-.06 152.25-.39-85.34-.63-170.69-.69-256.03-.33-13.62-.23-27.24-.12-40.86.28-13.49-.07-26.98.14-40.46z"/><path fill="#79737b" d="M1327.1 740.28c.6.54.6.54 0 0z"/><path fill="#15100f" d="M1286.74 792.93l1.51-.31c.39 10.79.11 21.6.2 32.41-.29 1.31.76 4.51-1.7 3.96-.19-12.01-.36-24.05-.01-36.06z"/><path fill="#140f10" d="M1286.81 829.81l1.34.46c.92 16.86.34 33.81.57 50.71.1 29.99.46 59.97.47 89.95-.33.8-1 2.4-1.34 3.2-.7-1.01-1.4-2.01-2.1-2.98.38-1.36.59-2.73.64-4.11.05-38.22-.1-76.44-.14-114.66 1.03-7.49-.01-15.06.56-22.57z"/><path fill="#2f3134" d="M1.81 873.68c2.33.03 7.17-1.22 7.16 2.2-2.4-.24-4.79-.59-7.14-1.11l-.02-1.09z"/><path fill="#575b65" d="M1372.46 875.63c.62 19.12-.05 38.27.6 57.4-.35 14.99-.22 29.99.03 44.99-.28 5.13-.35 10.28-.1 15.43-.46-2.49-.86-5-1.77-7.34.4-2.1-.84-4.03-1.37-5.97 1.23-2.19 1.84-4.64 1.14-7.11-.69-2.4.61-4.66.74-7.01-.12-28-.03-56-.19-84.01-.1-2.18.35-4.31.92-6.38z"/><path fill="#3c4342" d="M44.09 942.13c3.03-1.64.31 3.2 0 0z"/><path fill="#363738" d="M1265.78 973.58c6.2.24 12.5.39 18.63-.77 6.68 5.4 12.07 12.19 18.49 17.89l.01-.91c4.47 5.93 10.19 10.69 15.38 15.97 6.99 6.91 14.03 13.78 20.89 20.83.05 1.42.17 2.88.28 4.32-1.63-1.81-4.98-2.74-6.12-.02.33 4.02 1.64 7.97 1.61 12.05-.95 2.57-2 6.32-5.22 6.65-2.74-.29-5.6-2.58-7.85.11.63.85 1.27 1.72 1.92 2.6-1.88-.01-3.71-.47-5.33-1.38.75-.97 1.26-2 .52-3.15-1.41 1.45-2.39 3.23-3.25 5.05-2.07-.26-4.11-.65-6.13-1.1-3.42 4.03-8.54-.65-12.79.9-3.99 1.45-8.4-.25-12.23 1.8-.63-.64-1.24-1.27-1.83-1.87-4.56 2-9.44.07-14.13-.11-2.67-.06-5.28-.58-7.9-.99-1.97-.44-3.82 1.76-5.68.56-.88-.42-1.72-.91-2.54-1.39-1.42.76-2.67 1.78-3.55 3.14-.38.02-1.15.08-1.53.1-.03-.89-.04-1.77-.03-2.64-2.44-.1-5.06.01-6.77 2.01-.25-.08-.75-.25-1-.34-1.41.29-2.87.18-4.27.08.45-.68.92-1.34 1.4-1.99-.42-.27-1.27-.79-1.7-1.05-.88.93-1.73 1.88-2.58 2.84l-.84-2.08c-2.53.91-5.09-.51-7.65.06-1.17-1.34-1.68-3.98-3.87-3.72-1.82 1.1-3.48 2.65-5.73 2.67-.19 1.13.34 2.79-1.17 3.16-1.5-1.31-2.89-2.78-4.73-3.57-.95.64-1.5 2.31-2.84 2.08-2.25-.05-2.73-2.6-3.82-4.08-1.38.7-2.68 1.64-2.69 3.35-.84.23-1.65.48-2.45.74-.12.35-.37 1.05-.49 1.4-2-.82-3.95-1.8-6.04-2.31-1.6.32-2.56 1.82-3.71 2.84-.29-.21-.87-.62-1.16-.82-.14.5-.4 1.5-.53 2-.8-.4-1.59-.79-2.37-1.17-.13-.45-.41-1.36-.54-1.81-2.17 2.19-4.39.14-5.95-1.62-1.39.94-2.27 2.35-2.89 3.88-.96-.67-1.91-1.33-2.85-1.97-1.49 2.11-3.42 3.9-6.05 4.33-.33.5-.99 1.51-1.32 2.02.48.53 1.04.94 1.67 1.24 5.97-.14 11.96 1.75 17.88.09 7.65-1.7 15.33.48 22.95 1.21-3.85.25-7.7.19-11.53.47-76.66.12-153.33.53-229.99.46 8.79-1.33 17.73.04 26.56-.87-1.22-1.04-2.85-.83-4.29-.88-27.27-.28-54.55.1-81.82-.2-.38-.87-.75-1.72-1.12-2.56 4.33-1.01 8.75-1.98 13.22-1.54 3.12.54 5.76-1.45 8.31-2.9.55.62 1.12 1.26 1.69 1.91 1.66-1.16 3.33-2.38 5.36-2.8 2.46-.41 4.07-2.46 6.05-3.77.81.95 1.63 1.92 2.46 2.9-.68.3-1.35.61-2 .93-.05.39-.13 1.16-.18 1.55 2.44-.55 4.83-.09 6.93 1.27.54-1.15.28-3.17 1.85-3.4 1.7.84 1.95 2.88 2.67 4.46.77-1.59 1.57-3.15 2.36-4.72 1.42.39 2.82.88 4.19 1.47.13-.38.38-1.15.51-1.53-.53-.76-1.04-1.51-1.54-2.25.06-.33.17-.99.23-1.33 2.97 1.95 6.09 3.79 8.45 6.51.19-1.28.39-2.54.6-3.78.58.97 1.18 1.95 1.8 2.95.44-2.03.55-4.1.44-6.16 3.36 2.76 7.63 4.31 11.95 3.05-.47-.84-.94-1.68-1.39-2.49.79-.05 1.59-.08 2.41-.1.25-.38.76-1.14 1.01-1.52 1.75-.67 3.43-1.53 5.24-2.06 2.58.28 5.23-.08 7.75.82.49-1.06 1.02-2.09 1.55-3.12.78.06 1.58.13 2.39.21.06-.33.19-1 .26-1.34.62-.01 1.27 0 1.93.02 1.08-2.89 3.68-4.36 6.7-4.38.11.55.35 1.63.46 2.17.56-.89 1.1-1.79 1.69-2.65.69.29 1.41.6 2.13.93.75-.34 1.51-.67 2.29-.98 3.59.89 6.6 4.46 10.52 2.52-.05-.81-.08-1.62-.1-2.41 1.83.19 3.68.27 5.55.24-2.16-1.06-4.25-2.25-6.13-3.71-.44 1.29-.88 2.57-1.31 3.89-1.32-3.28.76-6.42 3.47-8.15 1.12-.6 2.21.44 3.29.71 1.77-1.38 1.47-3.5 1.17-5.46 1.17 1.35 2.38 2.69 3.62 4.01 1.48-2.06 1.05-4.2-.47-6.05 1.19.17 2.39.35 3.6.54-.65-1.81-1.48-3.53-2.49-5.13 1.58-.96 3.1-2.02 4.53-3.19-1.11-1.3-2.21-2.59-3.31-3.87-.93.41-1.85.85-2.76 1.29-.55-1.06-.37-2.86-1.68-3.27-2.72 1.73-5.33 3.73-8.52 4.51-.15-1.44-.16-2.89-.07-4.31-.88.03-1.75.07-2.6.13-.42-.29-1.25-.87-1.67-1.16-.68 1.13-1.34 2.27-1.97 3.43-.15-1.4.07-2.98-1.05-4.03-.76 1.64-1.45 3.31-2.14 4.98-.65-2.45-1.18-4.92-1.63-7.4-1.28 0-2.55.01-3.81.03.89.92 1.79 1.85 2.7 2.8-.25.78-.49 1.57-.72 2.38-1.89-1.12-3.52-2.61-4.7-4.45-.58 1.88-.66 3.84-.61 5.81-.65-1.17-1.31-2.33-1.94-3.48-.48.23-.95.47-1.41.73-.69-.32-1.37-.63-2.03-.92-.49.61-.96 1.23-1.42 1.87-2.01-1.02-4.28-1.05-6.46-1.08.48.89.99 1.78 1.51 2.69-1.55 1.27-3.23 2.36-4.98 3.3-.64-1.3-1.2-2.61-1.67-3.95-2.36.33-4.74.5-7.11.63.94-.57 1.89-1.11 2.85-1.65-1.87-.73-3.83-1.23-5.78-1.61.73-.69 1.43-1.4 2.19-2.05-.43-.66-.83-1.3-1.22-1.92.45-.11 1.35-.31 1.8-.41-.05-1.16-.1-2.3-.15-3.42-1.48.69-1.82 3.55-3.8 2.28-2.78-.83-2.44-4.1-2.7-6.39-2.12.06-4.17-.43-5.21-2.43.93-1.5 1.85-3 2.79-4.48.77-.23 1.57-.45 2.37-.67-1.84-2.48-3.96.25-5.64 1.44-.67-.71-1.38-1.39-2.02-2.07-3.28.79-6.73 2.44-10.07.93-.11.55-.33 1.64-.43 2.19 1.56.21 3.14.42 4.74.66-.99 1.24-1.97 2.48-2.94 3.74.98.56 1.98 1.14 2.99 1.72-1.23.27-2.43.56-3.64.85-.91-2.4-1.76-4.81-2.53-7.23-1.17.27-2.33.55-3.47.86.32 1.62 1.78 2.25 3.19 2.79-.44.99-.41 2.04-.05 3.06-.4.11-1.19.32-1.59.43-.82-.38-1.62-.75-2.41-1.09-.22.62-.67 1.86-.89 2.48-.67-1.67-1.31-3.35-1.94-5-1.48-1.03-2.73-2.42-3.15-4.2.68-1.02 1.56-1.87 2.4-2.75-.31-1.22-.61-2.43-.89-3.62-.61.42-1.2.85-1.78 1.29-.91-.66-1.81-1.3-2.7-1.94l-1.04.8c-.54-1.03-1.04-2.04-1.55-3.05-1.3 1.57-3.26 3.06-5.36 1.94-3.85-1.8-8.24.35-12.02-1.74-.7.75-1.36 1.53-2.03 2.32-.17-.57-.53-1.7-.7-2.27-1.53.09-3-.1-3.83-1.53 4-.62 8.02.22 12.04.03 10.89-1.21 21.88.12 32.8-.84 5.73.02 11.48-.18 17.21.31-.26-.99-.49-1.95-.72-2.91 90.87-.19 181.73-.47 272.59-1.04 6.67.18 13.34.21 20-.14m-107.94 3.69c1.73 1.73 4.07 2.5 6.5 2.33.38 1 .78 2.03 1.19 3.07.54-1.41 1.11-2.8 1.69-4.18 1.75-.01 4.72.77 4.6-1.96-2.29-.01-4.57-.2-6.74-.85-2.4.63-4.83 1.09-7.24 1.59m-182.78-.22c.27 3.2 3.05-1.61 0 0m65.12 2.18c.61.52.61.52 0 0z"/><path fill="#2c2e2f" d="M567.18 975.63c107.95-.17 215.89-.28 323.83-.5 27.39-.52 54.79-.21 82.18-.37.23.96.46 1.92.72 2.91-5.73-.49-11.48-.29-17.21-.31-10.92.96-21.91-.37-32.8.84-4.02.19-8.04-.65-12.04-.03.83 1.43 2.3 1.62 3.83 1.53.17.57.53 1.7.7 2.27.67-.79 1.33-1.57 2.03-2.32 3.78 2.09 8.17-.06 12.02 1.74 2.1 1.12 4.06-.37 5.36-1.94.51 1.01 1.01 2.02 1.55 3.05l1.04-.8c.89.64 1.79 1.28 2.7 1.94.58-.44 1.17-.87 1.78-1.29.28 1.19.58 2.4.89 3.62-.84.88-1.72 1.73-2.4 2.75.42 1.78 1.67 3.17 3.15 4.2.63 1.65 1.27 3.33 1.94 5 .22-.62.67-1.86.89-2.48.79.34 1.59.71 2.41 1.09.4-.11 1.19-.32 1.59-.43-.36-1.02-.39-2.07.05-3.06-1.41-.54-2.87-1.17-3.19-2.79 1.14-.31 2.3-.59 3.47-.86.77 2.42 1.62 4.83 2.53 7.23 1.21-.29 2.41-.58 3.64-.85-1.01-.58-2.01-1.16-2.99-1.72.97-1.26 1.95-2.5 2.94-3.74-1.6-.24-3.18-.45-4.74-.66.1-.55.32-1.64.43-2.19 3.34 1.51 6.79-.14 10.07-.93.64.68 1.35 1.36 2.02 2.07 1.68-1.19 3.8-3.92 5.64-1.44-.8.22-1.6.44-2.37.67-.94 1.48-1.86 2.98-2.79 4.48 1.04 2 3.09 2.49 5.21 2.43.26 2.29-.08 5.56 2.7 6.39 1.98 1.27 2.32-1.59 3.8-2.28.05 1.12.1 2.26.15 3.42-.45.1-1.35.3-1.8.41.39.62.79 1.26 1.22 1.92-.76.65-1.46 1.36-2.19 2.05 1.95.38 3.91.88 5.78 1.61-.96.54-1.91 1.08-2.85 1.65 2.37-.13 4.75-.3 7.11-.63.47 1.34 1.03 2.65 1.67 3.95 1.75-.94 3.43-2.03 4.98-3.3-.52-.91-1.03-1.8-1.51-2.69 2.18.03 4.45.06 6.46 1.08.46-.64.93-1.26 1.42-1.87.66.29 1.34.6 2.03.92.46-.26.93-.5 1.41-.73.63 1.15 1.29 2.31 1.94 3.48-.05-1.97.03-3.93.61-5.81 1.18 1.84 2.81 3.33 4.7 4.45.23-.81.47-1.6.72-2.38-.91-.95-1.81-1.88-2.7-2.8 1.26-.02 2.53-.03 3.81-.03.45 2.48.98 4.95 1.63 7.4.69-1.67 1.38-3.34 2.14-4.98 1.12 1.05.9 2.63 1.05 4.03.63-1.16 1.29-2.3 1.97-3.43.42.29 1.25.87 1.67 1.16.85-.06 1.72-.1 2.6-.13-.09 1.42-.08 2.87.07 4.31 3.19-.78 5.8-2.78 8.52-4.51 1.31.41 1.13 2.21 1.68 3.27.91-.44 1.83-.88 2.76-1.29 1.1 1.28 2.2 2.57 3.31 3.87-1.43 1.17-2.95 2.23-4.53 3.19 1.01 1.6 1.84 3.32 2.49 5.13-1.21-.19-2.41-.37-3.6-.54 1.52 1.85 1.95 3.99.47 6.05-1.24-1.32-2.45-2.66-3.62-4.01.3 1.96.6 4.08-1.17 5.46-1.08-.27-2.17-1.31-3.29-.71-2.71 1.73-4.79 4.87-3.47 8.15.43-1.32.87-2.6 1.31-3.89 1.88 1.46 3.97 2.65 6.13 3.71-1.87.03-3.72-.05-5.55-.24.02.79.05 1.6.1 2.41-3.92 1.94-6.93-1.63-10.52-2.52-.78.31-1.54.64-2.29.98-.72-.33-1.44-.64-2.13-.93-.59.86-1.13 1.76-1.69 2.65-.11-.54-.35-1.62-.46-2.17-3.02.02-5.62 1.49-6.7 4.38-.66-.02-1.31-.03-1.93-.02-.07.34-.2 1.01-.26 1.34-.81-.08-1.61-.15-2.39-.21-.53 1.03-1.06 2.06-1.55 3.12-2.52-.9-5.17-.54-7.75-.82-1.81.53-3.49 1.39-5.24 2.06-.25.38-.76 1.14-1.01 1.52-.82.02-1.62.05-2.41.1.45.81.92 1.65 1.39 2.49-4.32 1.26-8.59-.29-11.95-3.05.11 2.06 0 4.13-.44 6.16-.62-1-1.22-1.98-1.8-2.95-.21 1.24-.41 2.5-.6 3.78-2.36-2.72-5.48-4.56-8.45-6.51-.06.34-.17 1-.23 1.33.5.74 1.01 1.49 1.54 2.25-.13.38-.38 1.15-.51 1.53-1.37-.59-2.77-1.08-4.19-1.47-.79 1.57-1.59 3.13-2.36 4.72-.72-1.58-.97-3.62-2.67-4.46-1.57.23-1.31 2.25-1.85 3.4-2.1-1.36-4.49-1.82-6.93-1.27.05-.39.13-1.16.18-1.55.65-.32 1.32-.63 2-.93-.83-.98-1.65-1.95-2.46-2.9-1.98 1.31-3.59 3.36-6.05 3.77-2.03.42-3.7 1.64-5.36 2.8-.57-.65-1.14-1.29-1.69-1.91-2.55 1.45-5.19 3.44-8.31 2.9-4.47-.44-8.89.53-13.22 1.54.37.84.74 1.69 1.12 2.56 27.27.3 54.55-.08 81.82.2 1.44.05 3.07-.16 4.29.88-8.83.91-17.77-.46-26.56.87-107.94.35-215.88.09-323.81.15-52.47-.01-104.95.09-157.41.01 1.44-.53 2.88-1.24 4.46-1.17 8.42.04 16.86.57 25.28.04 1.1-2.61 3.49-4.21 5.87-5.53 1.53.25 2.98.85 4.45 1.37 1.44-1.05 2.9-2.07 4.39-3.04.93.5 1.87 1 2.82 1.53.96-.55 1.93-1.06 2.91-1.57.21 1.08.43 2.17.65 3.28 1.77-.02 3.48-1 5.24-.52.61-.63 1.23-1.23 1.85-1.83.57.71 1.16 1.44 1.75 2.18 2.11-.61 4.31-.8 6.5-.61 1.83 1.98 4.21 1.94 6.32.42.89.4 1.78.84 2.68 1.28.18-1.15.36-2.29.55-3.41 1.44.78 2.88 1.56 4.33 2.36.61-1.06 1.23-2.09 1.85-3.12.63.73 1.27 1.47 1.91 2.22 1.12-.03 2.25-.04 3.38-.03.81.79 1.62 1.59 2.44 2.42 1.65-.88 3.08-2.08 4.3-3.49.67.73 1.35 1.47 2.03 2.23.04-2.3.32-4.58.85-6.81 1.18 2.02 1.38 4.56 2.99 6.31.01-1.44-.02-2.88-.03-4.31 1.01 1.28 1.9 2.65 2.74 4.08.31-.75.63-1.49.97-2.2.37-.1 1.1-.3 1.47-.4.77 1.13 1.55 2.28 2.35 3.43-.05-1.86-.14-3.7-.27-5.52 1.72.09 3.45.13 5.19.2 2.54-.21 3.99 2.84 6.58 2.59 2.7-.46 5.5.36 8.11-.71 1.55-.88 2.71.78 3.97 1.48-.03-.97-.06-1.93-.08-2.88 1.09 1.29 2.21 2.58 3.34 3.87.34-.88.68-1.74 1.04-2.59-.78-.56-1.56-1.1-2.32-1.63 1.54-1.1 2.54-2.74 3.93-4 .02.89.05 1.8.08 2.72 2.43.59 4.85 1.22 7.27 1.88.59.79 1.2 1.59 1.8 2.41.49-1.65 1.04-3.28 1.68-4.86.2.99.4 1.99.6 3 2.37 1.39 4.39-.61 6.06-2.1.64-3.06-2.76-5.5-2.52-8.44 2.04-1.44 4.2-2.72 6.48-3.74 3.58-.55 7.25 2.17 10.7.16l1.24.68c.17-.27.52-.8.69-1.07.31.71.63 1.45.95 2.19.79-.39 1.59-.78 2.4-1.14 2.33 1.33 5.1 1.28 7.51 2.43-.69.31-1.38.64-2.06.97-.3 1.43-.58 2.89-.88 4.35 1.58-1.64 3.58-2.55 5.74-3.12.94-1.69-.37-3.49-.71-5.15 1.93 1.24 3.55 3.62 6.02 3.66.74-2.55-3.52-2.44-3.9-4.71-.57-2.33 1.22-4.32 2.1-6.32-1.24-.88-2.45-1.76-3.65-2.64.51-.18 1.53-.53 2.05-.7-.23-1.55-1.28-2.67-2.33-3.72.39-1.36.79-2.71 1.21-4.05 1.14.49 2.28.97 3.43 1.49.86-1.9 1.87-3.74 3.14-5.39.04-.68.1-1.35.15-2.01 1.46-.3 2.91-.6 4.37-.89 1.38.49 2.78.95 4.19 1.38.16-.44.49-1.32.65-1.76 3.3.46 6.49 1.93 9.89 1.22.26 1.52.53 3.06.81 4.6.33-1.36.66-2.7 1-4.04 2.79-.54 3.24 2.52 4.15 4.43 2.07.06 3.74 1.26 5.32 2.49 1.75-1.17 3.67-2.41 5.75-1.15-.99 1.67-1.88 3.4-2.65 5.19.65-.02 1.94-.06 2.59-.08-.03-.99-.05-1.97-.07-2.94 3.88-1.34 6.81 2.83 10.6 3.1.56-1.4 1.15-2.77 1.78-4.12.63.97 1.28 1.97 1.94 2.97.3-1.15.62-2.27.94-3.39-1.16-.34-2.31-.66-3.45-.97 0-.82.01-1.62.03-2.41-2.74-.96-5.46-.1-8 .98.4-.75.81-1.48 1.23-2.2-1.66.01-3.33.02-4.96-.27-.16.75-.3 1.51-.44 2.29-1.6-.99-3.23-1.92-4.89-2.79-.34-1.44-.67-2.86-1.02-4.27-.83.43-1.65.87-2.46 1.33-1.61-.56-3.25-.13-4.79.38-1.56-1.36-2.94-2.88-4.15-4.53 1.62-1.25 2.95.6 4.29 1.36.67-.19 1.36-.37 2.05-.54.68.26 1.37.53 2.06.82.19-1.84-.25-3.64-.71-5.38-1.09 1.24-2.19 2.48-3.33 3.69.15-1.19.33-2.36.51-3.52-.79.1-1.58.21-2.35.34.1-.74.22-1.46.34-2.16-1.55-.02-3.08-.24-4.5-.84-1.02.64-2.02 1.31-3.02 1.99-.15-1.16-.28-2.3-.41-3.44-.36.24-1.06.7-1.42.93-1.67-.42-3.36-.75-5.07-.92-.19.57-.59 1.71-.79 2.28-.99-1.38-1.97-2.76-2.94-4.12 1.09-1.44 2.18-2.87 3.26-4.3-.41-.85-.8-1.68-1.18-2.5.39-1.33.87-2.9.13-4.11-.84.39-1.71.51-2.55.1-1.09.67-2.16 1.37-3.22 2.1-.72-.54-1.43-1.06-2.13-1.58-1.78 1.15-3.58 2.28-5.37 3.42-1.62-2.52-3.52-4.83-5.64-6.93-.9 1.35-1.78 2.72-2.66 4.09-.2-1.41-.4-2.8-.59-4.17-3.82-.33-5.94-4.79-10.07-4.07-.14-.43-.43-1.28-.57-1.71-.49 1.28-.97 2.57-1.41 3.89-.75-.88-1.49-1.75-2.23-2.61-.29 1.31-.58 2.64-.87 3.97-.49-1.28-.95-2.56-1.4-3.83-2.22.49-4.54.71-6.55-.56-2.87 1.7-6.13.43-9.24.73-3.12.31-6.46-.69-9.33.97-1.23-.32-2.45-.63-3.65-.93-.17.58-.5 1.74-.66 2.32-.74-1.08-1.4-2.22-2.32-3.12-3.4.25-6.71 1.08-10.07 1.51-4.65-.96-9.77-1.2-14.2.74-1.05-.52-2.07-1.02-3.1-1.51-2.78.86-5.91 1.72-8.64.23-.21.55-.41 1.12-.59 1.71-2.54-1.64-5.95.23-8.16-2.12-1.31-.63-1.27-1.96-.86-3.11.68.43 1.37.87 2.07 1.33.43-1.29.87-2.58 1.32-3.84m190.85 2.27l-.26 1.1c2.74.22 5.53.23 8.25-.39-2.42-1.41-5.36-1.3-7.99-.71m56.14 57.29c.62.49.62.49 0 0z"/><path fill="#4e5053" d="M1157.84 977.27c2.41-.5 4.84-.96 7.24-1.59 2.17.65 4.45.84 6.74.85.12 2.73-2.85 1.95-4.6 1.96-.58 1.38-1.15 2.77-1.69 4.18-.41-1.04-.81-2.07-1.19-3.07-2.43.17-4.77-.6-6.5-2.33z"/><path fill="#1f2020" d="M86.41 977.16c1.09-.83 2.29-1.29 3.61-1.39 21.74-.02 43.5.25 65.24-.1 49.38.14 98.75-.04 148.13.14-1.68.84-3.5 1.38-5.39 1.28-25.02-.31-50.04.02-75.06-.14-2.22-.38-3.8 1.08-4.97 2.76 6.24-.78 12.4.87 18.63.5-.46.65-.92 1.32-1.38 1.99 1.78.63 3.67.66 5.52.38.2-1.14.42-2.27.63-3.38.3.69.6 1.4.91 2.12 3-2.32 6.49-.12 9.77.22.5-.25 1.01-.49 1.52-.71 2.33 3.46 7.06.38 9.7 3.5.63-.31 1.27-.59 1.91-.86.27 1.34.54 2.7.82 4.05 1.42-.16 2.83-.32 4.25-.46.11.47.35 1.41.46 1.88 2.21-.5 4.05-1.71 5.22-3.66-.46 2.61-.14 5.23 1.51 7.39.7-.28 1.41-.55 2.12-.8-.77-1.04-1.53-2.08-2.3-3.09.63-1.47.47-4.23 2.75-3.93 2.38.34 4.39 1.85 6.54 2.83-.11 2.19.33 4.45 2.46 5.58.62-1 1.25-1.97 1.87-2.95-1.01.03-2.01.08-3.01.13.23-1.14.37-3.1 2.09-2.42 3.26.6 1.65 4.4.39 6.19-.86.19-1.72.41-2.57.63 2.71 1.35 5.5 2.55 8.16 4.04.94-.54 1.89-1.06 2.84-1.57-.09.87-.19 1.76-.27 2.65.25.15.76.45 1.01.59 2.25-1.88 4.77-3.68 5.81-6.56-2.02-1.16-4.14-2.11-6.37-2.74.37-.69.74-1.36 1.12-2.02 3.18 3.09 8.52 1.76 11.23 5.58 2.84 3.42-1.87 7.87 1.08 11.25.26-.74.79-2.22 1.05-2.96.41 1.39.83 2.78 1.27 4.18 1.84-.05 3.88.08 4.55 2.16-2.98-.3-6.55-.95-8.34 2.12 2.1.08 4.39-.2 6.16 1.21-.61 1.13-1.22 2.28-1.8 3.44 2.27-.74 3.66-2.45 3.11-4.88.73.02 1.48.07 2.23.12.72 2.16.53 4.4-.08 6.58 1.08.11 2.18.17 3.27.19.74-1.58.31-3.19-.27-4.71 1.82.04 3.64.13 5.45.27 1.66-2.3 3.97-3.91 6.83-4.28-1.08-.3-2.15-.61-3.22-.88-.56-3.38-1.42-6.7-2.69-9.88 2.78-.93 5.72-.65 8.59-.56-.43 2.59-.56 5.24-.04 7.85.68-1.61 1.34-3.23 1.99-4.84 2.78.97 4.85 3.24 4.3 6.33-.55.2-1.65.59-2.2.79.35.48.71.97 1.06 1.48-1.41 1.17-2.82 2.36-4.23 3.55 1.05.68 2.09 1.36 3.15 2.07.03.79.07 1.59.11 2.41 1.95-1.05 4.44-2.46 6.49-.81 1.42 1.84-.9 3.08-2.15 4.04-1.75.87-1.66 2.99-2.12 4.63-.37-.32-1.09-.95-1.45-1.26-.93 2.2-1.89 4.47-1.97 6.91 1.61.12 3.24.33 4.68 1.1-2.11.64-4.83.18-6.4 2.01 1.45-.09 2.89-.2 4.33-.27-1.16 1.84-3.53 1.88-5.4 2.52-.38 1.32-.75 2.65-1.12 3.99-1.15-.29-2.26-.71-3.33-1.2-.34.68-.75 1.34-1.08 2.05-.4.22-1.21.67-1.61.89.76.73 1.54 1.48 2.31 2.24-1.04.56-2.07 1.15-3.1 1.74-.81-.31-1.61-.6-2.41-.88-.91 1.35-1.81 2.72-2.71 4.09-.74-.25-1.48-.49-2.2-.72.37-.55.76-1.1 1.15-1.63-1.8-.27-3.58-.63-5.32-1.12.48-.76.97-1.51 1.47-2.24-.56.11-1.69.35-2.25.47-.28.97-.55 1.96-.82 2.96-1.67.53-3.35 1.03-5.02 1.54 0-.99.01-1.96.01-2.93-2.1 1.48-2.32 3.98-2.39 6.35-.4.17-1.22.51-1.62.68-.09-1.45-.23-2.89-.49-4.31-.93 1.32-1.82 2.67-2.7 4.03-.18-.48-.56-1.44-.75-1.93-1.79-.19-3.53-.65-5.29-.95-2.21.72-3.59 2.89-5.38 4.3-.27-1.33-.51-2.65-.73-3.97-.71-.43-1.42-.84-2.13-1.24-1.55 2.17-3.6 4.69-6.57 4.47-3.21-.17-6.25.99-9.41 1.17-1.89-1.49.16-3.74.55-5.48-.37-.24-1.12-.72-1.5-.96-1.02 4.07-5.94 4.84-7.77 8.46-.87-.86-1.73-1.71-2.6-2.54-1 .96-1.99 1.93-2.99 2.91-1.13-.73-2.26-1.44-3.38-2.14-.4.18-1.21.53-1.61.71-1.72-.37-3.44-.7-5.16-.97-.08-.74-.15-1.47-.21-2.19-1.51-.71-3.02-1.42-4.52-2.15-.45-1.48-1.29-2.73-2.87-3.13-1.02 2.01-1.63 4.2-1.96 6.44-1.59-.95-3.34-1.9-5.03-.59 1.04 2.9 2.19 5.87 4.56 7.97-26.88-.15-53.77.03-80.65-.12-1.6-.16-3.08.45-4.52 1.06-43.93.29-87.88-.02-131.82.23.09-.77.29-2.3.38-3.06 2.13-.09 4.26-.15 6.39-.22.53-2.61 1.71-6.6 5.22-5.63-.52 1-1.82 1.99-1.04 3.24 2.71 1.07 5.44-1.76 8.15-.07 1.05-.76 2.1-1.52 3.15-2.26 2.79 1.82 5.37 5.07 8.99 4.78 2.38-.31 2.68-2.88 2.68-4.79.67.42 1.35.86 2.03 1.32.79-.91 1.58-1.82 2.37-2.71.52 1.01 1.03 2.03 1.55 3.06.27-.9.54-1.78.81-2.65.28.74.56 1.49.85 2.25 2.21-.7 4.48-1.23 6.61-2.16-.2 1.22-.39 2.45-.57 3.7 1.97-1.19 3.87-2.51 5.98-3.45 1.3.65 2.46 1.56 3.74 2.27 3.27-.63 5.36-3.89 8.71-4.41 2.23-.41 4.62-1.65 6.8-.47-1.16.79-2.33 1.6-3.51 2.39 1.67.44 3.41 1.53 5.17.99 1.83-1.09 3.11-2.86 4.61-4.33.44.4 1.33 1.2 1.77 1.6.85-.48 1.69-.97 2.54-1.41.87.92 1.73 1.85 2.59 2.8.24-1.29.47-2.57.71-3.83.35.83.7 1.68 1.06 2.54 1.89-1.34 3.8-2.66 5.7-3.97.59.25 1.18.52 1.77.8 1.13-.47 2.27-.92 3.41-1.35.55.6 1.1 1.21 1.66 1.83-1.3.29-2.6.61-3.9.92.17.38.49 1.14.66 1.52 1.31.08 2.62.16 3.94.26.15-.56.45-1.69.61-2.25.44.34.88.71 1.32 1.08.35-.29 1.06-.89 1.41-1.19.51.38 1.01.77 1.52 1.18.53-.65 1.05-1.28 1.59-1.89 1.52.67 3.05 1.35 4.58 2.05-.05 1.17-.1 2.36-.11 3.54 1.99-1.66 2.16-4.26 2.52-6.62.55.33 1.1.68 1.65 1.04 1.7-2.4 3.34-4.82 4.91-7.29-1.65.05-3.3.12-4.94.16 1.33-2.31 3.85-2.31 6.14-1.66-2.11-2.5-4.69-4.97-4.78-8.47-1.03-.62-2.06-1.23-3.09-1.84.7-.66 1.41-1.31 2.13-1.95.46.24.92.49 1.38.77 1.75-2.37 5.24-2.78 6.1-5.92.32 1 .64 2.01.97 3.04-1.32.92-3.26 1.78-3 3.75.96 2.26 2.66 4.1 4.21 5.97 1.84-1.45 3.81-2.9 6.27-2.84.18-.95.36-1.9.54-2.82-1.64.51-3.27 1.05-4.9 1.61-.82-2.89-1.51-5.95-.13-8.79 1.73.76 3.4 1.78 5.29 2.11 1.86-.63 3.55-1.66 5.28-2.54-.08-2.23-.15-4.47-.6-6.66-1.11 1.17-2.19 2.36-3.26 3.57-.35-1.17-.7-2.32-1.04-3.47-.96-.1-1.92-.18-2.87-.25.44.64.87 1.29 1.31 1.96-1.86-.01-3.72-.01-5.58-.02 1.57-2.14 3.84-3.49 6.43-3.98-.58-1.09-1.15-2.17-1.71-3.24.2-.5.41-.99.62-1.45-1.08-.59-2.17-1.17-3.25-1.73.84-1.57 1.97-2.94 3.27-4.13-2.41-2.25-4.97-4.42-8.15-5.43-.28 2.96-.2 6 1.08 8.76-1.75 1.31-3.53 2.59-5.31 3.87-2.64-1.18-3.01-4.88-5.63-5.75-2.92.49-5.57-1.11-8.42-1.34-1.62-.16-3.11-.79-4.53-1.54 1.44-.54 2.88-1.05 4.33-1.54-2.67-.72-5.24-1.76-7.63-3.14-.04-.39-.12-1.16-.17-1.55.47-.09 1.41-.26 1.88-.34-.25-2.06-.46-4.15.22-6.14-.85-.93-1.71-1.85-2.58-2.76-3.17 1.53-6.67 2.08-9.79.09-.55.38-1.1.78-1.65 1.19-.96-1.94-2.98-3.07-4.86-1.49-.77-.33-1.53-.64-2.29-.93-1.08.36-2.17.74-3.25 1.13-.78-.61-1.56-1.22-2.35-1.8-2.51.97-4.97-.4-7.29-1.24-.3.86-.67 1.69-.97 2.57-.91-.83-1.81-1.67-2.71-2.48-1.52.11-3.03.2-4.54.34 1.59-1.32 2.88-2.93 3.36-4.96.67-.43 1.55-.31 2.21-.74z"/><path fill="#242627" d="M303.39 975.81c66.99-.25 133.99.07 200.99-.2 20.93.16 41.87 0 62.8.02-.45 1.26-.89 2.55-1.32 3.84-.7-.46-1.39-.9-2.07-1.33-.41 1.15-.45 2.48.86 3.11 2.21 2.35 5.62.48 8.16 2.12.18-.59.38-1.16.59-1.71 2.73 1.49 5.86.63 8.64-.23 1.03.49 2.05.99 3.1 1.51 4.43-1.94 9.55-1.7 14.2-.74 3.36-.43 6.67-1.26 10.07-1.51.92.9 1.58 2.04 2.32 3.12.16-.58.49-1.74.66-2.32 1.2.3 2.42.61 3.65.93 2.87-1.66 6.21-.66 9.33-.97 3.11-.3 6.37.97 9.24-.73 2.01 1.27 4.33 1.05 6.55.56.45 1.27.91 2.55 1.4 3.83.29-1.33.58-2.66.87-3.97.74.86 1.48 1.73 2.23 2.61.44-1.32.92-2.61 1.41-3.89.14.43.43 1.28.57 1.71 4.13-.72 6.25 3.74 10.07 4.07.19 1.37.39 2.76.59 4.17.88-1.37 1.76-2.74 2.66-4.09 2.12 2.1 4.02 4.41 5.64 6.93 1.79-1.14 3.59-2.27 5.37-3.42.7.52 1.41 1.04 2.13 1.58 1.06-.73 2.13-1.43 3.22-2.1.84.41 1.71.29 2.55-.1.74 1.21.26 2.78-.13 4.11.38.82.77 1.65 1.18 2.5-1.08 1.43-2.17 2.86-3.26 4.3.97 1.36 1.95 2.74 2.94 4.12.2-.57.6-1.71.79-2.28 1.71.17 3.4.5 5.07.92.36-.23 1.06-.69 1.42-.93.13 1.14.26 2.28.41 3.44 1-.68 2-1.35 3.02-1.99 1.42.6 2.95.82 4.5.84-.12.7-.24 1.42-.34 2.16.77-.13 1.56-.24 2.35-.34-.18 1.16-.36 2.33-.51 3.52 1.14-1.21 2.24-2.45 3.33-3.69.46 1.74.9 3.54.71 5.38-.69-.29-1.38-.56-2.06-.82-.69.17-1.38.35-2.05.54-1.34-.76-2.67-2.61-4.29-1.36 1.21 1.65 2.59 3.17 4.15 4.53 1.54-.51 3.18-.94 4.79-.38.81-.46 1.63-.9 2.46-1.33.35 1.41.68 2.83 1.02 4.27 1.66.87 3.29 1.8 4.89 2.79.14-.78.28-1.54.44-2.29 1.63.29 3.3.28 4.96.27-.42.72-.83 1.45-1.23 2.2 2.54-1.08 5.26-1.94 8-.98-.02.79-.03 1.59-.03 2.41 1.14.31 2.29.63 3.45.97-.32 1.12-.64 2.24-.94 3.39-.66-1-1.31-2-1.94-2.97-.63 1.35-1.22 2.72-1.78 4.12-3.79-.27-6.72-4.44-10.6-3.1.02.97.04 1.95.07 2.94-.65.02-1.94.06-2.59.08.77-1.79 1.66-3.52 2.65-5.19-2.08-1.26-4-.02-5.75 1.15-1.58-1.23-3.25-2.43-5.32-2.49-.91-1.91-1.36-4.97-4.15-4.43-.34 1.34-.67 2.68-1 4.04-.28-1.54-.55-3.08-.81-4.6-3.4.71-6.59-.76-9.89-1.22-.16.44-.49 1.32-.65 1.76-1.41-.43-2.81-.89-4.19-1.38-1.46.29-2.91.59-4.37.89-.05.66-.11 1.33-.15 2.01-1.27 1.65-2.28 3.49-3.14 5.39-1.15-.52-2.29-1-3.43-1.49-.42 1.34-.82 2.69-1.21 4.05 1.05 1.05 2.1 2.17 2.33 3.72-.52.17-1.54.52-2.05.7 1.2.88 2.41 1.76 3.65 2.64-.88 2-2.67 3.99-2.1 6.32.38 2.27 4.64 2.16 3.9 4.71-2.47-.04-4.09-2.42-6.02-3.66.34 1.66 1.65 3.46.71 5.15-2.16.57-4.16 1.48-5.74 3.12.3-1.46.58-2.92.88-4.35.68-.33 1.37-.66 2.06-.97-2.41-1.15-5.18-1.1-7.51-2.43-.81.36-1.61.75-2.4 1.14-.32-.74-.64-1.48-.95-2.19-.17.27-.52.8-.69 1.07l-1.24-.68c-3.45 2.01-7.12-.71-10.7-.16-2.28 1.02-4.44 2.3-6.48 3.74-.24 2.94 3.16 5.38 2.52 8.44-1.67 1.49-3.69 3.49-6.06 2.1-.2-1.01-.4-2.01-.6-3-.64 1.58-1.19 3.21-1.68 4.86-.6-.82-1.21-1.62-1.8-2.41-2.42-.66-4.84-1.29-7.27-1.88-.03-.92-.06-1.83-.08-2.72-1.39 1.26-2.39 2.9-3.93 4 .76.53 1.54 1.07 2.32 1.63-.36.85-.7 1.71-1.04 2.59-1.13-1.29-2.25-2.58-3.34-3.87.02.95.05 1.91.08 2.88-1.26-.7-2.42-2.36-3.97-1.48-2.61 1.07-5.41.25-8.11.71-2.59.25-4.04-2.8-6.58-2.59-1.74-.07-3.47-.11-5.19-.2.13 1.82.22 3.66.27 5.52-.8-1.15-1.58-2.3-2.35-3.43-.37.1-1.1.3-1.47.4-.34.71-.66 1.45-.97 2.2-.84-1.43-1.73-2.8-2.74-4.08.01 1.43.04 2.87.03 4.31-1.61-1.75-1.81-4.29-2.99-6.31-.53 2.23-.81 4.51-.85 6.81-.68-.76-1.36-1.5-2.03-2.23-1.22 1.41-2.65 2.61-4.3 3.49-.82-.83-1.63-1.63-2.44-2.42-1.13-.01-2.26 0-3.38.03-.64-.75-1.28-1.49-1.91-2.22-.62 1.03-1.24 2.06-1.85 3.12-1.45-.8-2.89-1.58-4.33-2.36-.19 1.12-.37 2.26-.55 3.41-.9-.44-1.79-.88-2.68-1.28-2.11 1.52-4.49 1.56-6.32-.42-2.19-.19-4.39 0-6.5.61-.59-.74-1.18-1.47-1.75-2.18-.62.6-1.24 1.2-1.85 1.83-1.76-.48-3.47.5-5.24.52-.22-1.11-.44-2.2-.65-3.28-.98.51-1.95 1.02-2.91 1.57-.95-.53-1.89-1.03-2.82-1.53-1.49.97-2.95 1.99-4.39 3.04-1.47-.52-2.92-1.12-4.45-1.37-2.38 1.32-4.77 2.92-5.87 5.53-8.42.53-16.86 0-25.28-.04-1.58-.07-3.02.64-4.46 1.17-23.89.13-47.78 0-71.67.09 1.47-2.01-2.34-1.99-.85 0-4.88 0-9.76-.06-14.64.02-77-.09-154.01-.01-231.01.05-2.96-.01-5.92-.06-8.88-.12 1.44-.61 2.92-1.22 4.52-1.06 26.88.15 53.77-.03 80.65.12-2.37-2.1-3.52-5.07-4.56-7.97 1.69-1.31 3.44-.36 5.03.59.33-2.24.94-4.43 1.96-6.44 1.58.4 2.42 1.65 2.87 3.13 1.5.73 3.01 1.44 4.52 2.15.06.72.13 1.45.21 2.19 1.72.27 3.44.6 5.16.97.4-.18 1.21-.53 1.61-.71 1.12.7 2.25 1.41 3.38 2.14 1-.98 1.99-1.95 2.99-2.91.87.83 1.73 1.68 2.6 2.54 1.83-3.62 6.75-4.39 7.77-8.46.38.24 1.13.72 1.5.96-.39 1.74-2.44 3.99-.55 5.48 3.16-.18 6.2-1.34 9.41-1.17 2.97.22 5.02-2.3 6.57-4.47.71.4 1.42.81 2.13 1.24.22 1.32.46 2.64.73 3.97 1.79-1.41 3.17-3.58 5.38-4.3 1.76.3 3.5.76 5.29.95.19.49.57 1.45.75 1.93.88-1.36 1.77-2.71 2.7-4.03.26 1.42.4 2.86.49 4.31.4-.17 1.22-.51 1.62-.68.07-2.37.29-4.87 2.39-6.35 0 .97-.01 1.94-.01 2.93 1.67-.51 3.35-1.01 5.02-1.54.27-1 .54-1.99.82-2.96.56-.12 1.69-.36 2.25-.47-.5.73-.99 1.48-1.47 2.24 1.74.49 3.52.85 5.32 1.12-.39.53-.78 1.08-1.15 1.63.72.23 1.46.47 2.2.72.9-1.37 1.8-2.74 2.71-4.09.8.28 1.6.57 2.41.88 1.03-.59 2.06-1.18 3.1-1.74-.77-.76-1.55-1.51-2.31-2.24.4-.22 1.21-.67 1.61-.89.33-.71.74-1.37 1.08-2.05 1.07.49 2.18.91 3.33 1.2.37-1.34.74-2.67 1.12-3.99 1.87-.64 4.24-.68 5.4-2.52-1.44.07-2.88.18-4.33.27 1.57-1.83 4.29-1.37 6.4-2.01-1.44-.77-3.07-.98-4.68-1.1.08-2.44 1.04-4.71 1.97-6.91.36.31 1.08.94 1.45 1.26.46-1.64.37-3.76 2.12-4.63 1.25-.96 3.57-2.2 2.15-4.04-2.05-1.65-4.54-.24-6.49.81-.04-.82-.08-1.62-.11-2.41-1.06-.71-2.1-1.39-3.15-2.07 1.41-1.19 2.82-2.38 4.23-3.55-.35-.51-.71-1-1.06-1.48.55-.2 1.65-.59 2.2-.79.55-3.09-1.52-5.36-4.3-6.33-.65 1.61-1.31 3.23-1.99 4.84-.52-2.61-.39-5.26.04-7.85-2.87-.09-5.81-.37-8.59.56 1.27 3.18 2.13 6.5 2.69 9.88 1.07.27 2.14.58 3.22.88-2.86.37-5.17 1.98-6.83 4.28-1.81-.14-3.63-.23-5.45-.27.58 1.52 1.01 3.13.27 4.71-1.09-.02-2.19-.08-3.27-.19.61-2.18.8-4.42.08-6.58-.75-.05-1.5-.1-2.23-.12.55 2.43-.84 4.14-3.11 4.88.58-1.16 1.19-2.31 1.8-3.44-1.77-1.41-4.06-1.13-6.16-1.21 1.79-3.07 5.36-2.42 8.34-2.12-.67-2.08-2.71-2.21-4.55-2.16-.44-1.4-.86-2.79-1.27-4.18-.26.74-.79 2.22-1.05 2.96-2.95-3.38 1.76-7.83-1.08-11.25-2.71-3.82-8.05-2.49-11.23-5.58-.38.66-.75 1.33-1.12 2.02 2.23.63 4.35 1.58 6.37 2.74-1.04 2.88-3.56 4.68-5.81 6.56-.25-.14-.76-.44-1.01-.59.08-.89.18-1.78.27-2.65-.95.51-1.9 1.03-2.84 1.57-2.66-1.49-5.45-2.69-8.16-4.04.85-.22 1.71-.44 2.57-.63 1.26-1.79 2.87-5.59-.39-6.19-1.72-.68-1.86 1.28-2.09 2.42 1-.05 2-.1 3.01-.13-.62.98-1.25 1.95-1.87 2.95-2.13-1.13-2.57-3.39-2.46-5.58-2.15-.98-4.16-2.49-6.54-2.83-2.28-.3-2.12 2.46-2.75 3.93.77 1.01 1.53 2.05 2.3 3.09-.71.25-1.42.52-2.12.8-1.65-2.16-1.97-4.78-1.51-7.39-1.17 1.95-3.01 3.16-5.22 3.66-.11-.47-.35-1.41-.46-1.88-1.42.14-2.83.3-4.25.46-.28-1.35-.55-2.71-.82-4.05-.64.27-1.28.55-1.91.86-2.64-3.12-7.37-.04-9.7-3.5-.51.22-1.02.46-1.52.71-3.28-.34-6.77-2.54-9.77-.22-.31-.72-.61-1.43-.91-2.12-.21 1.11-.43 2.24-.63 3.38-1.85.28-3.74.25-5.52-.38.46-.67.92-1.34 1.38-1.99-6.23.37-12.39-1.28-18.63-.5 1.17-1.68 2.75-3.14 4.97-2.76 25.02.16 50.04-.17 75.06.14 1.89.1 3.71-.44 5.39-1.28z"/><path fill="#4f5254" d="M758.03 977.9c2.63-.59 5.57-.7 7.99.71-2.72.62-5.51.61-8.25.39l.26-1.1z"/><path fill="#6e7473" d="M975.06 977.05c3.05-1.61.27 3.2 0 0z"/><path fill="#262828" d="M1292.32 977.28c2.59 1.33 4.51 3.77 6.34 6.02-.14.4-.43 1.2-.57 1.6-2.42-2.25-4.79-4.55-7.03-6.96l1.26-.66z"/><path fill="#080809" d="M74.81 986.83c3.12-2.99 5.82-6.47 9.39-8.93-.48 2.03-1.77 3.64-3.36 4.96-12.01 12-24.14 23.89-36.01 36.03-.97.89-2.1 1.59-3.2 2.32.7-1.43 1.47-2.83 2.63-3.92 10.23-10.11 20.31-20.36 30.55-30.46z"/><path fill="#767075" d="M1040.18 979.23c.61.52.61.52 0 0z"/><path fill="#7f888e" d="M1370.57 1000.03c.34-4.64-.87-9.43.65-13.92.91 2.34 1.31 4.85 1.77 7.34.08 1.84.13 3.68.14 5.55-.64.26-1.92.77-2.56 1.03z"/><path fill="#090a0a" d="M1302.08 988.85c2.29-.73 3.37 1.95 4.87 3.15 14.39 14.61 29.07 28.93 43.36 43.65 5.36 5.39 10.94 10.59 15.92 16.36l-1.11.29c-8.53-8.69-17.32-17.11-25.94-25.71-6.86-7.05-13.9-13.92-20.89-20.83-5.19-5.28-10.91-10.04-15.38-15.97l-.83-.94z"/><path fill="#575b65" d="M1370.57 1000.03c.64-.26 1.92-.77 2.56-1.03-.63 8.02.2 16.05.02 24.09-.1 8.97.71 18-.5 26.94-.42 2.49 1.62 5.28-.14 7.48-1.27-1.38-2.74-2.54-4.34-3.46 1.01-2.34 2.2-4.64 2.78-7.13.39-3.3-.65-6.59-.27-9.88 1-5.97.84-12.06.5-18.06-.8-4.09.46-8.18.04-12.27-.25-2.24-.68-4.44-.65-6.68z"/><path fill="#404142" d="M1339.18 1026.59c8.62 8.6 17.41 17.02 25.94 25.71.83.75 1.71 1.43 2.59 2.18 1.03.99 1.86 2.16 2.72 3.34-.13.5-.37 1.49-.5 1.99-27.64.81-55.31.09-82.96.6-6.96-.34-13.93.36-20.86-.37-4.07-.15-8.13-.15-12.13-.94-13.96.11-27.96-.34-41.91.24-.43.1-1.29.3-1.72.39l-.17.81-1.21-.14c-.71-1.57-1.28-1.51-1.71.19-.5.02-1.48.08-1.97.1-7.62-.73-15.3-2.91-22.95-1.21-1.05-.43-2.1-.92-3.23-.94-4.89-.31-10.12-1.89-14.65.85-.63-.3-1.19-.71-1.67-1.24.33-.51.99-1.52 1.32-2.02 2.63-.43 4.56-2.22 6.05-4.33.94.64 1.89 1.3 2.85 1.97.62-1.53 1.5-2.94 2.89-3.88 1.56 1.76 3.78 3.81 5.95 1.62.13.45.41 1.36.54 1.81.78.38 1.57.77 2.37 1.17.13-.5.39-1.5.53-2 .29.2.87.61 1.16.82 1.15-1.02 2.11-2.52 3.71-2.84 2.09.51 4.04 1.49 6.04 2.31.12-.35.37-1.05.49-1.4.8-.26 1.61-.51 2.45-.74.01-1.71 1.31-2.65 2.69-3.35 1.09 1.48 1.57 4.03 3.82 4.08 1.34.23 1.89-1.44 2.84-2.08 1.84.79 3.23 2.26 4.73 3.57 1.51-.37.98-2.03 1.17-3.16 2.25-.02 3.91-1.57 5.73-2.67 2.19-.26 2.7 2.38 3.87 3.72 2.56-.57 5.12.85 7.65-.06l.84 2.08c.85-.96 1.7-1.91 2.58-2.84.43.26 1.28.78 1.7 1.05-.48.65-.95 1.31-1.4 1.99 1.4.1 2.86.21 4.27-.08.25.09.75.26 1 .34 1.71-2 4.33-2.11 6.77-2.01-.01.87 0 1.75.03 2.64.38-.02 1.15-.08 1.53-.1.88-1.36 2.13-2.38 3.55-3.14.82.48 1.66.97 2.54 1.39 1.86 1.2 3.71-1 5.68-.56 2.62.41 5.23.93 7.9.99 4.69.18 9.57 2.11 14.13.11.59.6 1.2 1.23 1.83 1.87 3.83-2.05 8.24-.35 12.23-1.8 4.25-1.55 9.37 3.13 12.79-.9 2.02.45 4.06.84 6.13 1.1.86-1.82 1.84-3.6 3.25-5.05.74 1.15.23 2.18-.52 3.15 1.62.91 3.45 1.37 5.33 1.38-.65-.88-1.29-1.75-1.92-2.6 2.25-2.69 5.11-.4 7.85-.11 3.22-.33 4.27-4.08 5.22-6.65.03-4.08-1.28-8.03-1.61-12.05 1.14-2.72 4.49-1.79 6.12.02-.11-1.44-.23-2.9-.28-4.32m-43.83 30.79c-1.2.56-3.57-.13-4.04 1.18 1.49.62 3.25.54 4.88.42 1.52-.31.14-2.06-.84-1.6m10.56.99c3.38.88 6.94.66 10.41.59l-.45-.99c-3.32-.47-6.69-.16-9.96.4z"/><path fill="#555b63" d="M814.17 1035.19c.62.49.62.49 0 0z"/><path fill="#f7f8f8" d="M1367.71 1054.48l.46-.43c1.6.92 3.07 2.08 4.34 3.46.64.76 1.26 1.57 1.87 2.43l.11.25c-1.9.22-3.08-1-4.06-2.37-.86-1.18-1.69-2.35-2.72-3.34z"/><path fill="#7f888e" d="M1164.46 1059.39c4.53-2.74 9.76-1.16 14.65-.85 1.13.02 2.18.51 3.23.94-5.92 1.66-11.91-.23-17.88-.09z"/><path fill="#64696c" d="M1295.35 1057.38c.98-.46 2.36 1.29.84 1.6-1.63.12-3.39.2-4.88-.42.47-1.31 2.84-.62 4.04-1.18z"/><path fill="#55595a" d="M1305.91 1058.37c3.27-.56 6.64-.87 9.96-.4l.45.99c-3.47.07-7.03.29-10.41-.59z"/><path fill="#575b65" d="M1370.43 1057.82c.98 1.37 2.16 2.59 4.06 2.37l.51.12v.47c-7.62-.82-15.34-.07-23-.26-31.43.2-62.86.13-94.29.37l-.95-.72c3.11.19 6.23.01 9.35-.13 6.93.73 13.9.03 20.86.37 27.65-.51 55.32.21 82.96-.6.13-.5.37-1.49.5-1.99z"/><path fill="#6c6e73" d="M1207.26 1060.59c.43-1.7 1-1.76 1.71-.19-.43.05-1.29.14-1.71.19z"/><path fill="#727078" d="M1210.35 1059.73c.43-.09 1.29-.29 1.72-.39-.47.3-1.42.9-1.89 1.2l.17-.81z"/><path fill="#1b1b1f" opacity=".54" d="M1212.07 1059.34c13.95-.58 27.95-.13 41.91-.24 4 .79 8.06.79 12.13.94-3.12.14-6.24.32-9.35.13-13.61-.52-27.26-.09-40.88-.23-.95-.33-3.79.62-1.51 1.1 14.43 0 28.89-.1 43.34-.15-13.21.53-26.45.14-39.66.33-1.69.1-3.29.75-4.95.73-6.37-1.42-12.9-.29-19.34-.79 3.83-.28 7.68-.22 11.53-.47.49-.02 1.47-.08 1.97-.1.42-.05 1.28-.14 1.71-.19l1.21.14c.47-.3 1.42-.9 1.89-1.2z"/><path fill="#8b8994" d="M1.91 1060.14c1.66-1.3 2.53 1.18.75 1.77l-.71-.06c-.01-.43-.03-1.28-.04-1.71z"/><path fill="#555459" opacity=".92" d="M410.03 1061.87c-1.49-1.99 2.32-2.01.85 0h-.85z"/><path fill="#2e2d3a" opacity=".89" d="M1214.37 1061.04c-2.28-.48.56-1.43 1.51-1.1 13.62.14 27.27-.29 40.88.23l.95.72c-14.45.05-28.91.15-43.34.15z"/><path fill="#141417" opacity=".24" d="M1.95 1061.85l.71.06c7 .3 14.01.06 21.02.14 43.94-.25 87.89.06 131.82-.23 2.96.06 5.92.11 8.88.12l-.71 1.06H2.03l-.08-1.15z"/><path fill="#0a0a0c" opacity=".15" d="M164.38 1061.94c77-.06 154.01-.14 231.01-.05l-.64 1.11H163.67l.71-1.06z"/></svg>